<svg width="12" height="12" viewBox="0 0 12 12" fill="none" xmlns="http://www.w3.org/2000/svg">
<g clip-path="url(#clip0_551_131)">
<path d="M5.46973 0.219727C5.76263 -0.0731736 6.23737 -0.0731736 6.53027 0.219727L11.7803 5.46973C11.8334 5.52288 11.8744 5.58351 11.9082 5.64648C11.92 5.66839 11.9328 5.68974 11.9424 5.71289C11.9631 5.76291 11.9779 5.81457 11.9873 5.86719C11.9949 5.91004 12 5.95397 12 5.99902C12 6.04327 11.9947 6.08677 11.9873 6.12891C11.9779 6.18296 11.9627 6.23578 11.9414 6.28711C11.9359 6.30034 11.9281 6.31236 11.9219 6.3252C11.8863 6.39874 11.8413 6.46926 11.7803 6.53027L6.53027 11.7803C6.23741 12.073 5.76259 12.073 5.46973 11.7803C5.17706 11.4875 5.17715 11.0126 5.46973 10.7197L9.43945 6.74902H0.75C0.335777 6.74902 0 6.41325 0 5.99902C0.000223075 5.58499 0.335914 5.25 0.75 5.25H9.43848L5.46973 1.2793C5.17722 0.986402 5.17705 0.512513 5.46973 0.219727Z" fill="#6DB0E3"/>
</g>
<defs>
<clipPath id="clip0_551_131">
<rect width="12" height="12" fill="white"/>
</clipPath>
</defs>
</svg>
