<svg width="84" height="84" viewBox="0 0 84 84" fill="none" xmlns="http://www.w3.org/2000/svg">
<path d="M16 1H68C76.2843 1 83 7.71573 83 16V68C83 76.2843 76.2843 83 68 83H16C7.71573 83 1 76.2843 1 68V16C1 7.71573 7.71573 1 16 1Z" stroke="#6DB0E3" stroke-width="2"/>
<path d="M29.9892 47.7893C30.1853 48.2838 30.2289 48.8257 30.1146 49.3453L28.6946 53.7319C28.6488 53.9544 28.6607 54.1848 28.7289 54.4014C28.7972 54.6181 28.9197 54.8136 29.0848 54.9696C29.2499 55.1256 29.4521 55.2368 29.6722 55.2928C29.8923 55.3487 30.1231 55.3475 30.3426 55.2893L34.8932 53.9586C35.3835 53.8613 35.8913 53.9038 36.3586 54.0813C39.2058 55.4109 42.4311 55.6922 45.4654 54.8755C48.4998 54.0589 51.1483 52.1968 52.9435 49.6177C54.7388 47.0387 55.5654 43.9085 55.2776 40.7793C54.9899 37.6502 53.6062 34.7232 51.3707 32.5148C49.1352 30.3065 46.1915 28.9586 43.0591 28.7091C39.9267 28.4596 36.8068 29.3244 34.2498 31.151C31.6929 32.9776 29.8633 35.6486 29.0838 38.6928C28.3043 41.7369 28.6249 44.9585 29.9892 47.7893Z" stroke="#6DB0E3" stroke-width="2.66667" stroke-linecap="round" stroke-linejoin="round"/>
</svg>
