<svg width="48" height="48" viewBox="0 0 48 48" fill="none" xmlns="http://www.w3.org/2000/svg">
<path d="M0 24C0 10.7452 10.7452 0 24 0C37.2548 0 48 10.7452 48 24C48 37.2548 37.2548 48 24 48C10.7452 48 0 37.2548 0 24Z" fill="#6DB0E3"/>
<path d="M14.9917 28.342C15.1387 28.7129 15.1715 29.1193 15.0857 29.509L14.0207 32.799C13.9864 32.9658 13.9952 33.1387 14.0465 33.3011C14.0977 33.4636 14.1896 33.6103 14.3134 33.7273C14.4372 33.8443 14.5888 33.9277 14.7539 33.9697C14.919 34.0116 15.0921 34.0107 15.2567 33.967L18.6697 32.969C19.0374 32.8961 19.4182 32.9279 19.7687 33.061C21.9041 34.0582 24.3231 34.2692 26.5988 33.6567C28.8746 33.0442 30.861 31.6477 32.2074 29.7134C33.5538 27.7791 34.1738 25.4314 33.958 23.0845C33.7422 20.7377 32.7044 18.5425 31.0278 16.8862C29.3511 15.2299 27.1434 14.219 24.7941 14.0319C22.4448 13.8448 20.1048 14.4934 18.1871 15.8633C16.2694 17.2333 14.8972 19.2365 14.3126 21.5196C13.7279 23.8027 13.9685 26.219 14.9917 28.342Z" stroke="white" stroke-width="2" stroke-linecap="round" stroke-linejoin="round"/>
</svg>
