<svg width="64" height="64" viewBox="0 0 64 64" fill="none" xmlns="http://www.w3.org/2000/svg">
<path d="M0 16C0 7.16344 7.16344 0 16 0H48C56.8366 0 64 7.16344 64 16V48C64 56.8366 56.8366 64 48 64H16C7.16344 64 0 56.8366 0 48V16Z" fill="#6DB0E3"/>
<path d="M18.666 28.6666C18.666 27.1829 19.1161 25.7341 19.9569 24.5115C20.7976 23.289 21.9894 22.3502 23.3748 21.8192C24.7603 21.2882 26.2742 21.1899 27.7167 21.5374C29.1592 21.8848 30.4623 22.6617 31.454 23.7653C31.5239 23.84 31.6083 23.8995 31.7021 23.9402C31.7959 23.9809 31.8971 24.002 31.9993 24.002C32.1016 24.002 32.2028 23.9809 32.2966 23.9402C32.3904 23.8995 32.4748 23.84 32.5447 23.7653C33.5333 22.6545 34.8367 21.8711 36.2815 21.5194C37.7263 21.1678 39.244 21.2644 40.6325 21.7966C42.021 22.3288 43.2145 23.2712 44.0542 24.4985C44.8938 25.7258 45.3398 27.1797 45.3327 28.6666C45.3327 31.72 43.3327 34 41.3327 36L34.01 43.084C33.7616 43.3693 33.4553 43.5985 33.1114 43.7564C32.7676 43.9142 32.3941 43.9971 32.0157 43.9995C31.6374 44.0019 31.2629 43.9238 30.9171 43.7703C30.5712 43.6168 30.2621 43.3915 30.01 43.1093L22.666 36C20.666 34 18.666 31.7333 18.666 28.6666Z" stroke="white" stroke-width="2.66667" stroke-linecap="round" stroke-linejoin="round"/>
</svg>
