<svg width="64" height="64" viewBox="0 0 64 64" fill="none" xmlns="http://www.w3.org/2000/svg">
<path d="M0 16C0 7.16344 7.16344 0 16 0H48C56.8366 0 64 7.16344 64 16V48C64 56.8366 56.8366 64 48 64H16C7.16344 64 0 56.8366 0 48V16Z" fill="#6DB0E3"/>
<path d="M37.3327 44V41.3333C37.3327 39.9188 36.7708 38.5623 35.7706 37.5621C34.7704 36.5619 33.4138 36 31.9993 36H23.9993C22.5849 36 21.2283 36.5619 20.2281 37.5621C19.2279 38.5623 18.666 39.9188 18.666 41.3333V44" stroke="white" stroke-width="2.66667" stroke-linecap="round" stroke-linejoin="round"/>
<path d="M37.334 20.1707C38.4777 20.4671 39.4905 21.135 40.2136 22.0694C40.9366 23.0038 41.3289 24.1518 41.3289 25.3333C41.3289 26.5148 40.9366 27.6628 40.2136 28.5972C39.4905 29.5316 38.4777 30.1995 37.334 30.496" stroke="white" stroke-width="2.66667" stroke-linecap="round" stroke-linejoin="round"/>
<path d="M45.334 44V41.3333C45.3331 40.1516 44.9398 39.0037 44.2158 38.0698C43.4918 37.1358 42.4782 36.4688 41.334 36.1733" stroke="white" stroke-width="2.66667" stroke-linecap="round" stroke-linejoin="round"/>
<path d="M27.9993 30.6667C30.9449 30.6667 33.3327 28.2789 33.3327 25.3333C33.3327 22.3878 30.9449 20 27.9993 20C25.0538 20 22.666 22.3878 22.666 25.3333C22.666 28.2789 25.0538 30.6667 27.9993 30.6667Z" stroke="white" stroke-width="2.66667" stroke-linecap="round" stroke-linejoin="round"/>
</svg>
