<svg width="108" height="108" viewBox="0 0 108 108" fill="none" xmlns="http://www.w3.org/2000/svg">
<g filter="url(#filter0_dd_609_1261)">
<path d="M28 3H80C88.2843 3 95 9.71573 95 18V70C95 78.2843 88.2843 85 80 85H28C19.7157 85 13 78.2843 13 70V18C13 9.71573 19.7157 3 28 3Z" stroke="#6DB0E3" stroke-width="2" shape-rendering="crispEdges"/>
<path d="M59.3337 56V53.3333C59.3337 51.9188 58.7718 50.5623 57.7716 49.5621C56.7714 48.5619 55.4148 48 54.0003 48H46.0003C44.5858 48 43.2293 48.5619 42.2291 49.5621C41.2289 50.5623 40.667 51.9188 40.667 53.3333V56" stroke="#6DB0E3" stroke-width="2.66667" stroke-linecap="round" stroke-linejoin="round"/>
<path d="M59.333 32.1707C60.4767 32.4671 61.4895 33.135 62.2126 34.0694C62.9356 35.0038 63.3279 36.1518 63.3279 37.3333C63.3279 38.5148 62.9356 39.6628 62.2126 40.5972C61.4895 41.5316 60.4767 42.1995 59.333 42.496" stroke="#6DB0E3" stroke-width="2.66667" stroke-linecap="round" stroke-linejoin="round"/>
<path d="M67.333 55.9998V53.3331C67.3321 52.1514 66.9388 51.0035 66.2148 50.0695C65.4908 49.1356 64.4772 48.4685 63.333 48.1731" stroke="#6DB0E3" stroke-width="2.66667" stroke-linecap="round" stroke-linejoin="round"/>
<path d="M50.0003 42.6667C52.9458 42.6667 55.3337 40.2789 55.3337 37.3333C55.3337 34.3878 52.9458 32 50.0003 32C47.0548 32 44.667 34.3878 44.667 37.3333C44.667 40.2789 47.0548 42.6667 50.0003 42.6667Z" stroke="#6DB0E3" stroke-width="2.66667" stroke-linecap="round" stroke-linejoin="round"/>
</g>
<defs>
<filter id="filter0_dd_609_1261" x="0" y="0" width="108" height="108" filterUnits="userSpaceOnUse" color-interpolation-filters="sRGB">
<feFlood flood-opacity="0" result="BackgroundImageFix"/>
<feColorMatrix in="SourceAlpha" type="matrix" values="0 0 0 0 0 0 0 0 0 0 0 0 0 0 0 0 0 0 127 0" result="hardAlpha"/>
<feMorphology radius="4" operator="erode" in="SourceAlpha" result="effect1_dropShadow_609_1261"/>
<feOffset dy="4"/>
<feGaussianBlur stdDeviation="3"/>
<feComposite in2="hardAlpha" operator="out"/>
<feColorMatrix type="matrix" values="0 0 0 0 0 0 0 0 0 0 0 0 0 0 0 0 0 0 0.1 0"/>
<feBlend mode="normal" in2="BackgroundImageFix" result="effect1_dropShadow_609_1261"/>
<feColorMatrix in="SourceAlpha" type="matrix" values="0 0 0 0 0 0 0 0 0 0 0 0 0 0 0 0 0 0 127 0" result="hardAlpha"/>
<feMorphology radius="3" operator="erode" in="SourceAlpha" result="effect2_dropShadow_609_1261"/>
<feOffset dy="10"/>
<feGaussianBlur stdDeviation="7.5"/>
<feComposite in2="hardAlpha" operator="out"/>
<feColorMatrix type="matrix" values="0 0 0 0 0 0 0 0 0 0 0 0 0 0 0 0 0 0 0.1 0"/>
<feBlend mode="normal" in2="effect1_dropShadow_609_1261" result="effect2_dropShadow_609_1261"/>
<feBlend mode="normal" in="SourceGraphic" in2="effect2_dropShadow_609_1261" result="shape"/>
</filter>
</defs>
</svg>
