<svg width="20" height="20" viewBox="0 0 20 20" fill="none" xmlns="http://www.w3.org/2000/svg">
<g clip-path="url(#clip0_809_36)">
<path d="M11.5265 13.807C11.6986 13.886 11.8925 13.9041 12.0762 13.8582C12.26 13.8123 12.4226 13.7052 12.5373 13.5545L12.8332 13.167C12.9884 12.96 13.1897 12.792 13.4211 12.6763C13.6526 12.5606 13.9078 12.5003 14.1665 12.5003H16.6665C17.1085 12.5003 17.5325 12.6759 17.845 12.9885C18.1576 13.301 18.3332 13.725 18.3332 14.167V16.667C18.3332 17.109 18.1576 17.5329 17.845 17.8455C17.5325 18.1581 17.1085 18.3337 16.6665 18.3337C12.6883 18.3337 8.87295 16.7533 6.0599 13.9403C3.24686 11.1272 1.6665 7.31191 1.6665 3.33366C1.6665 2.89163 1.8421 2.46771 2.15466 2.15515C2.46722 1.84259 2.89114 1.66699 3.33317 1.66699H5.83317C6.2752 1.66699 6.69912 1.84259 7.01168 2.15515C7.32424 2.46771 7.49984 2.89163 7.49984 3.33366V5.83366C7.49984 6.0924 7.4396 6.34759 7.32388 6.57901C7.20817 6.81044 7.04016 7.01175 6.83317 7.16699L6.44317 7.45949C6.29018 7.57631 6.18235 7.74248 6.138 7.92978C6.09364 8.11709 6.11549 8.31397 6.19984 8.48699C7.33874 10.8002 9.21186 12.671 11.5265 13.807Z" stroke="white" stroke-width="1.66667" stroke-linecap="round" stroke-linejoin="round"/>
</g>
<defs>
<clipPath id="clip0_809_36">
<rect width="20" height="20" fill="white"/>
</clipPath>
</defs>
</svg>
