<svg width="108" height="108" viewBox="0 0 108 108" fill="none" xmlns="http://www.w3.org/2000/svg">
<g filter="url(#filter0_dd_609_1267)">
<path d="M28 3H80C88.2843 3 95 9.71573 95 18V70C95 78.2843 88.2843 85 80 85H28C19.7157 85 13 78.2843 13 70V18C13 9.71573 19.7157 3 28 3Z" stroke="#6DB0E3" stroke-width="2" shape-rendering="crispEdges"/>
<path d="M58 46.6667C58.2667 45.3334 58.9333 44.4001 60 43.3334C61.3333 42.1334 62 40.4001 62 38.6667C62 36.545 61.1571 34.5102 59.6569 33.0099C58.1566 31.5096 56.1217 30.6667 54 30.6667C51.8783 30.6667 49.8434 31.5096 48.3431 33.0099C46.8429 34.5102 46 36.545 46 38.6667C46 40.0001 46.2667 41.6001 48 43.3334C48.9333 44.2667 49.7333 45.3334 50 46.6667" stroke="#6DB0E3" stroke-width="2.66667" stroke-linecap="round" stroke-linejoin="round"/>
<path d="M50 52H58" stroke="#6DB0E3" stroke-width="2.66667" stroke-linecap="round" stroke-linejoin="round"/>
<path d="M51.333 57.3333H56.6663" stroke="#6DB0E3" stroke-width="2.66667" stroke-linecap="round" stroke-linejoin="round"/>
</g>
<defs>
<filter id="filter0_dd_609_1267" x="0" y="0" width="108" height="108" filterUnits="userSpaceOnUse" color-interpolation-filters="sRGB">
<feFlood flood-opacity="0" result="BackgroundImageFix"/>
<feColorMatrix in="SourceAlpha" type="matrix" values="0 0 0 0 0 0 0 0 0 0 0 0 0 0 0 0 0 0 127 0" result="hardAlpha"/>
<feMorphology radius="4" operator="erode" in="SourceAlpha" result="effect1_dropShadow_609_1267"/>
<feOffset dy="4"/>
<feGaussianBlur stdDeviation="3"/>
<feComposite in2="hardAlpha" operator="out"/>
<feColorMatrix type="matrix" values="0 0 0 0 0 0 0 0 0 0 0 0 0 0 0 0 0 0 0.1 0"/>
<feBlend mode="normal" in2="BackgroundImageFix" result="effect1_dropShadow_609_1267"/>
<feColorMatrix in="SourceAlpha" type="matrix" values="0 0 0 0 0 0 0 0 0 0 0 0 0 0 0 0 0 0 127 0" result="hardAlpha"/>
<feMorphology radius="3" operator="erode" in="SourceAlpha" result="effect2_dropShadow_609_1267"/>
<feOffset dy="10"/>
<feGaussianBlur stdDeviation="7.5"/>
<feComposite in2="hardAlpha" operator="out"/>
<feColorMatrix type="matrix" values="0 0 0 0 0 0 0 0 0 0 0 0 0 0 0 0 0 0 0.1 0"/>
<feBlend mode="normal" in2="effect1_dropShadow_609_1267" result="effect2_dropShadow_609_1267"/>
<feBlend mode="normal" in="SourceGraphic" in2="effect2_dropShadow_609_1267" result="shape"/>
</filter>
</defs>
</svg>
