<svg width="108" height="108" viewBox="0 0 108 108" fill="none" xmlns="http://www.w3.org/2000/svg">
<g filter="url(#filter0_dd_551_304)">
<path d="M28 3H80C88.2843 3 95 9.71573 95 18V70C95 78.2843 88.2843 85 80 85H28C19.7157 85 13 78.2843 13 70V18C13 9.71573 19.7157 3 28 3Z" stroke="white" stroke-width="2" shape-rendering="crispEdges"/>
<path d="M40.6665 40.6669C40.6665 39.1832 41.1166 37.7343 41.9573 36.5118C42.7981 35.2892 43.9899 34.3504 45.3753 33.8194C46.7608 33.2884 48.2747 33.1901 49.7172 33.5376C51.1597 33.8851 52.4628 34.6619 53.4545 35.7655C53.5244 35.8402 53.6088 35.8998 53.7026 35.9405C53.7964 35.9812 53.8976 36.0022 53.9998 36.0022C54.1021 36.0022 54.2033 35.9812 54.2971 35.9405C54.3909 35.8998 54.4753 35.8402 54.5452 35.7655C55.5338 34.6547 56.8372 33.8714 58.282 33.5197C59.7268 33.168 61.2445 33.2647 62.633 33.7969C64.0215 34.329 65.215 35.2715 66.0547 36.4988C66.8943 37.726 67.3403 39.1799 67.3332 40.6669C67.3332 43.7202 65.3332 46.0002 63.3332 48.0002L56.0105 55.0842C55.7621 55.3696 55.4557 55.5988 55.1119 55.7566C54.7681 55.9145 54.3946 55.9973 54.0162 55.9997C53.6379 56.0021 53.2634 55.924 52.9176 55.7705C52.5717 55.617 52.2625 55.3917 52.0105 55.1095L44.6665 48.0002C42.6665 46.0002 40.6665 43.7335 40.6665 40.6669Z" stroke="white" stroke-width="2.66667" stroke-linecap="round" stroke-linejoin="round"/>
</g>
<defs>
<filter id="filter0_dd_551_304" x="0" y="0" width="108" height="108" filterUnits="userSpaceOnUse" color-interpolation-filters="sRGB">
<feFlood flood-opacity="0" result="BackgroundImageFix"/>
<feColorMatrix in="SourceAlpha" type="matrix" values="0 0 0 0 0 0 0 0 0 0 0 0 0 0 0 0 0 0 127 0" result="hardAlpha"/>
<feMorphology radius="4" operator="erode" in="SourceAlpha" result="effect1_dropShadow_551_304"/>
<feOffset dy="4"/>
<feGaussianBlur stdDeviation="3"/>
<feComposite in2="hardAlpha" operator="out"/>
<feColorMatrix type="matrix" values="0 0 0 0 0 0 0 0 0 0 0 0 0 0 0 0 0 0 0.1 0"/>
<feBlend mode="normal" in2="BackgroundImageFix" result="effect1_dropShadow_551_304"/>
<feColorMatrix in="SourceAlpha" type="matrix" values="0 0 0 0 0 0 0 0 0 0 0 0 0 0 0 0 0 0 127 0" result="hardAlpha"/>
<feMorphology radius="3" operator="erode" in="SourceAlpha" result="effect2_dropShadow_551_304"/>
<feOffset dy="10"/>
<feGaussianBlur stdDeviation="7.5"/>
<feComposite in2="hardAlpha" operator="out"/>
<feColorMatrix type="matrix" values="0 0 0 0 0 0 0 0 0 0 0 0 0 0 0 0 0 0 0.1 0"/>
<feBlend mode="normal" in2="effect1_dropShadow_551_304" result="effect2_dropShadow_551_304"/>
<feBlend mode="normal" in="SourceGraphic" in2="effect2_dropShadow_551_304" result="shape"/>
</filter>
</defs>
</svg>
