<svg width="20" height="20" viewBox="0 0 20 20" fill="none" xmlns="http://www.w3.org/2000/svg">
<path d="M16.6668 8.33366C16.6668 12.4945 12.051 16.8278 10.501 18.1662C10.3566 18.2747 10.1808 18.3335 10.0002 18.3335C9.8195 18.3335 9.64373 18.2747 9.49933 18.1662C7.94933 16.8278 3.3335 12.4945 3.3335 8.33366C3.3335 6.56555 4.03588 4.86986 5.28612 3.61961C6.53636 2.36937 8.23205 1.66699 10.0002 1.66699C11.7683 1.66699 13.464 2.36937 14.7142 3.61961C15.9645 4.86986 16.6668 6.56555 16.6668 8.33366Z" stroke="white" stroke-width="1.66667" stroke-linecap="round" stroke-linejoin="round"/>
<path d="M10 10.833C11.3807 10.833 12.5 9.71372 12.5 8.33301C12.5 6.9523 11.3807 5.83301 10 5.83301C8.61929 5.83301 7.5 6.9523 7.5 8.33301C7.5 9.71372 8.61929 10.833 10 10.833Z" stroke="white" stroke-width="1.66667" stroke-linecap="round" stroke-linejoin="round"/>
</svg>
