<svg width="368" height="52" viewBox="0 0 368 52" fill="none" xmlns="http://www.w3.org/2000/svg">
<path d="M20.448 43.476C18.432 43.476 16.848 43.284 15.696 42.9C14.544 42.54 13.728 41.892 13.248 40.956C12.768 40.02 12.528 38.724 12.528 37.068V23.136C12.528 22.632 12.684 22.236 12.996 21.948C13.332 21.636 13.74 21.48 14.22 21.48C14.7 21.48 15.096 21.636 15.408 21.948C15.72 22.236 15.876 22.632 15.876 23.136V36.744C15.876 37.68 16.008 38.4 16.272 38.904C16.536 39.408 17.004 39.756 17.676 39.948C18.372 40.14 19.356 40.236 20.628 40.236C21.828 40.236 22.752 40.164 23.4 40.02C24.048 39.852 24.54 39.516 24.876 39.012C25.236 38.508 25.536 37.74 25.776 36.708C25.92 36.204 26.22 35.856 26.676 35.664C27.156 35.472 27.624 35.46 28.08 35.628C28.56 35.796 28.884 36.072 29.052 36.456C29.22 36.816 29.244 37.236 29.124 37.716C28.788 39.228 28.308 40.404 27.684 41.244C27.06 42.06 26.172 42.636 25.02 42.972C23.868 43.308 22.344 43.476 20.448 43.476ZM34.2 34.512C33.792 34.824 33.324 34.944 32.796 34.872C32.292 34.776 31.908 34.524 31.644 34.116C31.14 33.3 30.516 32.424 29.772 31.488C29.052 30.528 28.296 29.592 27.504 28.68C26.712 27.768 25.968 26.988 25.272 26.34C24.96 26.028 24.816 25.656 24.84 25.224C24.864 24.768 25.032 24.384 25.344 24.072C25.68 23.76 26.076 23.604 26.532 23.604C27.012 23.58 27.42 23.736 27.756 24.072C28.572 24.84 29.4 25.692 30.24 26.628C31.08 27.54 31.872 28.464 32.616 29.4C33.36 30.312 33.996 31.164 34.524 31.956C34.836 32.388 34.956 32.844 34.884 33.324C34.836 33.804 34.608 34.2 34.2 34.512ZM1.836 37.032C1.428 36.816 1.176 36.492 1.08 36.06C0.984 35.604 1.056 35.184 1.296 34.8C1.896 33.936 2.472 32.976 3.024 31.92C3.6 30.864 4.116 29.796 4.572 28.716C5.052 27.612 5.448 26.592 5.76 25.656C5.928 25.176 6.228 24.864 6.66 24.72C7.116 24.576 7.56 24.588 7.992 24.756C8.424 24.924 8.724 25.212 8.892 25.62C9.06 26.028 9.06 26.46 8.892 26.916C8.556 27.876 8.148 28.92 7.668 30.048C7.188 31.176 6.66 32.292 6.084 33.396C5.508 34.5 4.908 35.508 4.284 36.42C4.02 36.804 3.648 37.068 3.168 37.212C2.712 37.332 2.268 37.272 1.836 37.032ZM21.06 20.292C20.436 19.788 19.692 19.248 18.828 18.672C17.988 18.072 17.136 17.496 16.272 16.944C15.408 16.392 14.64 15.948 13.968 15.612C13.56 15.396 13.308 15.072 13.212 14.64C13.14 14.184 13.212 13.788 13.428 13.452C13.668 13.044 13.992 12.78 14.4 12.66C14.832 12.54 15.264 12.588 15.696 12.804C16.392 13.14 17.172 13.584 18.036 14.136C18.924 14.664 19.812 15.216 20.7 15.792C21.588 16.368 22.38 16.92 23.076 17.448C23.484 17.736 23.724 18.108 23.796 18.564C23.892 18.996 23.796 19.416 23.508 19.824C23.268 20.208 22.896 20.46 22.392 20.58C21.888 20.7 21.444 20.604 21.06 20.292ZM56.9635 45.348C56.4595 45.348 56.0275 45.204 55.6675 44.916C55.3315 44.628 55.1515 44.232 55.1275 43.728C55.1035 43.224 55.2595 42.804 55.5955 42.468C55.9315 42.156 56.3875 41.988 56.9635 41.964C58.1635 41.892 58.9555 41.724 59.3395 41.46C59.7475 41.196 59.9515 40.632 59.9515 39.768V34.476C57.0475 36.732 53.9515 38.748 50.6635 40.524C47.3755 42.276 44.0395 43.752 40.6555 44.952C40.1275 45.12 39.6595 45.108 39.2515 44.916C38.8435 44.748 38.5675 44.436 38.4235 43.98C38.2555 43.548 38.2675 43.14 38.4595 42.756C38.6755 42.372 39.0475 42.096 39.5755 41.928C42.5275 40.968 45.4555 39.744 48.3595 38.256C51.2875 36.744 54.0475 35.028 56.6395 33.108C55.3435 33.3 53.9515 33.492 52.4635 33.684C50.9755 33.876 49.4755 34.068 47.9635 34.26C46.4515 34.452 44.9995 34.632 43.6075 34.8C42.2155 34.968 40.9675 35.112 39.8635 35.232C39.3595 35.28 38.9395 35.196 38.6035 34.98C38.2675 34.74 38.0755 34.368 38.0275 33.864C38.0035 33.408 38.1235 33.036 38.3875 32.748C38.6755 32.46 39.0595 32.304 39.5395 32.28C40.2835 32.208 41.1355 32.136 42.0955 32.064C43.0555 31.968 44.0875 31.872 45.1915 31.776V20.94C45.1915 19.668 45.3475 18.648 45.6595 17.88C45.9955 17.088 46.5595 16.5 47.3515 16.116C48.1435 15.708 49.2475 15.468 50.6635 15.396C50.8075 14.964 50.9875 14.436 51.2035 13.812C51.4435 13.188 51.6235 12.684 51.7435 12.3C51.9115 11.796 52.2235 11.448 52.6795 11.256C53.1355 11.064 53.6155 11.052 54.1195 11.22C54.5755 11.364 54.8995 11.64 55.0915 12.048C55.2835 12.456 55.2835 12.864 55.0915 13.272C54.9955 13.56 54.8515 13.896 54.6595 14.28C54.4915 14.664 54.3355 15.024 54.1915 15.36H56.6035C58.3555 15.36 59.6995 15.54 60.6355 15.9C61.5955 16.26 62.2675 16.848 62.6515 17.664C63.0355 18.456 63.2275 19.548 63.2275 20.94V27.384C64.8835 25.68 66.3595 23.856 67.6555 21.912C67.9195 21.528 68.2795 21.3 68.7355 21.228C69.1915 21.132 69.6115 21.216 69.9955 21.48C70.3795 21.744 70.5955 22.104 70.6435 22.56C70.7155 22.992 70.6195 23.4 70.3555 23.784C69.3235 25.2 68.2075 26.58 67.0075 27.924C65.8315 29.244 64.5715 30.504 63.2275 31.704V40.092C63.2275 41.988 62.7475 43.332 61.7875 44.124C60.8275 44.916 59.2195 45.324 56.9635 45.348ZM48.5755 31.452C50.6875 31.236 52.7635 31.02 54.8035 30.804C56.8675 30.564 58.5835 30.36 59.9515 30.192V28.248H48.5755V31.452ZM48.5755 25.728H59.9515V23.244H48.5755V25.728ZM48.5755 20.724H59.9515C59.9275 19.692 59.6995 19.008 59.2675 18.672C58.8355 18.336 57.9475 18.168 56.6035 18.168H51.8875C50.5675 18.168 49.6915 18.336 49.2595 18.672C48.8275 19.008 48.5995 19.692 48.5755 20.724ZM93.695 40.776C93.263 40.776 92.891 40.632 92.579 40.344C92.267 40.056 92.111 39.684 92.111 39.228V36.924H83.255C82.871 36.924 82.559 36.792 82.319 36.528C82.079 36.24 81.959 35.916 81.959 35.556C81.959 35.196 82.079 34.884 82.319 34.62C82.559 34.332 82.871 34.188 83.255 34.188H92.111V31.92H90.959C89.135 31.92 87.743 31.764 86.783 31.452C85.823 31.14 85.163 30.552 84.803 29.688C84.467 28.824 84.299 27.576 84.299 25.944C84.299 24.288 84.467 23.04 84.803 22.2C85.163 21.336 85.823 20.748 86.783 20.436C87.743 20.124 89.135 19.968 90.959 19.968H92.111V17.736H83.543C83.159 17.736 82.847 17.604 82.607 17.34C82.391 17.076 82.283 16.764 82.283 16.404C82.283 16.044 82.391 15.732 82.607 15.468C82.847 15.204 83.159 15.072 83.543 15.072H92.111V13.236C92.111 12.756 92.267 12.384 92.579 12.12C92.891 11.832 93.263 11.688 93.695 11.688C94.127 11.688 94.487 11.832 94.775 12.12C95.087 12.384 95.243 12.756 95.243 13.236V15.072H104.027C104.435 15.072 104.747 15.204 104.963 15.468C105.203 15.732 105.323 16.044 105.323 16.404C105.323 16.764 105.203 17.076 104.963 17.34C104.747 17.604 104.435 17.736 104.027 17.736H95.243V19.968H96.467C98.315 19.968 99.719 20.124 100.679 20.436C101.639 20.748 102.287 21.336 102.623 22.2C102.983 23.04 103.163 24.288 103.163 25.944C103.163 27.576 102.983 28.824 102.623 29.688C102.287 30.552 101.639 31.14 100.679 31.452C99.719 31.764 98.327 31.92 96.503 31.92H95.243V34.188H104.495C104.903 34.188 105.227 34.332 105.467 34.62C105.707 34.884 105.827 35.196 105.827 35.556C105.827 35.916 105.707 36.24 105.467 36.528C105.227 36.792 104.903 36.924 104.495 36.924H95.243V39.228C95.243 39.684 95.087 40.056 94.775 40.344C94.487 40.632 94.127 40.776 93.695 40.776ZM93.371 44.088C91.067 44.088 89.063 43.968 87.359 43.728C85.679 43.512 84.215 43.14 82.967 42.612C81.743 42.084 80.675 41.376 79.763 40.488C79.403 40.752 78.947 41.088 78.395 41.496C77.843 41.88 77.315 42.252 76.811 42.612C76.307 42.972 75.935 43.248 75.695 43.44C75.311 43.704 74.879 43.8 74.399 43.728C73.919 43.656 73.547 43.428 73.283 43.044C73.043 42.636 72.971 42.216 73.067 41.784C73.187 41.328 73.451 40.992 73.859 40.776C74.123 40.632 74.483 40.428 74.939 40.164C75.419 39.876 75.923 39.576 76.451 39.264C76.979 38.952 77.447 38.676 77.855 38.436V30.084C77.855 29.46 77.747 29.028 77.531 28.788C77.315 28.548 76.895 28.428 76.271 28.428H74.219C73.763 28.428 73.403 28.284 73.139 27.996C72.875 27.708 72.743 27.36 72.743 26.952C72.743 26.544 72.875 26.208 73.139 25.944C73.403 25.656 73.763 25.512 74.219 25.512H77.315C78.587 25.512 79.499 25.8 80.051 26.376C80.627 26.928 80.915 27.84 80.915 29.112V37.896C81.731 38.712 82.643 39.36 83.651 39.84C84.683 40.32 85.967 40.668 87.503 40.884C89.063 41.076 91.019 41.172 93.371 41.172C95.699 41.172 97.727 41.148 99.455 41.1C101.207 41.028 102.743 40.944 104.063 40.848C104.591 40.8 105.035 40.92 105.395 41.208C105.755 41.496 105.935 41.88 105.935 42.36C105.935 42.84 105.779 43.224 105.467 43.512C105.179 43.824 104.735 43.98 104.135 43.98C103.223 44.004 102.131 44.016 100.859 44.016C99.587 44.04 98.291 44.052 96.971 44.052C95.651 44.076 94.451 44.088 93.371 44.088ZM81.095 20.004C80.783 20.292 80.399 20.436 79.943 20.436C79.487 20.412 79.127 20.232 78.863 19.896C78.551 19.512 78.143 19.056 77.639 18.528C77.135 17.976 76.619 17.448 76.091 16.944C75.563 16.416 75.107 15.984 74.723 15.648C74.435 15.384 74.303 15.06 74.327 14.676C74.351 14.292 74.495 13.956 74.759 13.668C75.023 13.38 75.359 13.212 75.767 13.164C76.199 13.116 76.571 13.236 76.883 13.524C77.315 13.884 77.795 14.328 78.323 14.856C78.875 15.36 79.403 15.876 79.907 16.404C80.435 16.908 80.867 17.352 81.203 17.736C81.515 18.048 81.659 18.432 81.635 18.888C81.611 19.344 81.431 19.716 81.095 20.004ZM95.243 29.4H96.431C97.367 29.4 98.087 29.352 98.591 29.256C99.095 29.16 99.455 28.956 99.671 28.644C99.887 28.308 100.019 27.792 100.067 27.096H95.243V29.4ZM91.031 29.4H92.111V27.096H87.359C87.407 27.792 87.539 28.308 87.755 28.644C87.995 28.956 88.367 29.16 88.871 29.256C89.399 29.352 90.119 29.4 91.031 29.4ZM95.243 24.648H100.067C100.019 23.976 99.875 23.496 99.635 23.208C99.419 22.896 99.059 22.704 98.555 22.632C98.051 22.536 97.343 22.488 96.431 22.488H95.243V24.648ZM87.395 24.648H92.111V22.488H91.031C90.119 22.488 89.411 22.536 88.907 22.632C88.403 22.704 88.031 22.896 87.791 23.208C87.575 23.496 87.443 23.976 87.395 24.648Z" fill="#6DB0E3"/>
<path d="M163.176 25.041C162.948 25.041 162.788 24.9681 162.697 24.8223C162.606 24.6764 162.561 24.4987 162.561 24.2891V15.2793C162.561 15.015 162.615 14.7917 162.725 14.6094C162.834 14.418 163.035 14.3223 163.326 14.3223C163.536 14.3223 163.704 14.3952 163.832 14.541C163.96 14.6777 164.055 14.8327 164.119 15.0059L167.195 22.5254V15.0879C167.195 14.8783 167.241 14.7005 167.332 14.5547C167.423 14.3997 167.583 14.3223 167.811 14.3223C168.048 14.3223 168.212 14.3997 168.303 14.5547C168.394 14.7005 168.439 14.8783 168.439 15.0879V24.0703C168.439 24.3346 168.385 24.5625 168.275 24.7539C168.166 24.9453 167.961 25.041 167.66 25.041C167.451 25.041 167.277 24.9681 167.141 24.8223C167.013 24.6764 166.913 24.5169 166.84 24.3438L163.805 16.8926V24.2891C163.805 24.5078 163.759 24.6901 163.668 24.8359C163.577 24.9727 163.413 25.041 163.176 25.041ZM170.903 25.041C170.666 25.041 170.498 24.9681 170.397 24.8223C170.306 24.6673 170.261 24.4805 170.261 24.2617V15.5938C170.261 15.293 170.365 15.0378 170.575 14.8281C170.785 14.6185 171.04 14.5137 171.341 14.5137H172.886C173.195 14.5137 173.551 14.5365 173.952 14.582C174.362 14.6185 174.704 14.7142 174.977 14.8691C175.442 15.1335 175.775 15.4798 175.975 15.9082C176.185 16.3366 176.29 16.8151 176.29 17.3438C176.29 18.3281 176.03 19.0755 175.511 19.5859C174.991 20.0964 174.239 20.3561 173.255 20.3652H171.546V24.2617C171.546 24.4805 171.496 24.6673 171.395 24.8223C171.304 24.9681 171.14 25.041 170.903 25.041ZM171.546 19.2031H172.817C173.501 19.2031 174.029 19.0801 174.403 18.834C174.777 18.5788 174.964 18.0775 174.964 17.3301C174.964 16.6829 174.786 16.2454 174.43 16.0176C174.084 15.7897 173.61 15.6758 173.009 15.6758H172.093C171.728 15.6758 171.546 15.8581 171.546 16.2227V19.2031ZM180.914 25.041C180.367 25.041 179.907 24.9271 179.533 24.6992C179.168 24.4622 178.872 24.1523 178.644 23.7695C178.425 23.3776 178.257 22.9492 178.138 22.4844C178.029 22.0104 177.956 21.5319 177.92 21.0488C177.883 20.5658 177.865 20.1191 177.865 19.709C177.865 19.2897 177.883 18.8385 177.92 18.3555C177.965 17.8633 178.043 17.3802 178.152 16.9062C178.27 16.4323 178.444 16.0039 178.671 15.6211C178.899 15.2292 179.2 14.9147 179.574 14.6777C179.948 14.4408 180.412 14.3223 180.968 14.3223C181.506 14.3223 181.953 14.4408 182.308 14.6777C182.673 14.9147 182.964 15.2292 183.183 15.6211C183.402 16.013 183.566 16.446 183.675 16.9199C183.785 17.3939 183.858 17.8724 183.894 18.3555C183.931 18.8294 183.949 19.2669 183.949 19.668C183.949 20.0781 183.931 20.5247 183.894 21.0078C183.858 21.4909 183.78 21.9694 183.662 22.4434C183.552 22.9173 183.384 23.3503 183.156 23.7422C182.937 24.1341 182.645 24.4486 182.281 24.6855C181.916 24.9225 181.461 25.041 180.914 25.041ZM180.9 23.8242C181.41 23.8242 181.793 23.6055 182.048 23.168C182.222 22.8763 182.345 22.5163 182.418 22.0879C182.5 21.6504 182.554 21.2083 182.582 20.7617C182.609 20.3151 182.623 19.9323 182.623 19.6133C182.623 19.3854 182.614 19.1029 182.595 18.7656C182.586 18.4284 182.554 18.0729 182.5 17.6992C182.445 17.3255 182.354 16.9746 182.226 16.6465C182.108 16.3184 181.939 16.054 181.72 15.8535C181.502 15.6439 181.224 15.5391 180.886 15.5391C180.558 15.5391 180.289 15.6393 180.08 15.8398C179.87 16.0312 179.701 16.2819 179.574 16.5918C179.455 16.9017 179.369 17.2389 179.314 17.6035C179.259 17.959 179.223 18.3008 179.205 18.6289C179.196 18.957 179.191 19.2305 179.191 19.4492C179.191 19.7773 179.2 20.1738 179.218 20.6387C179.246 21.0944 179.296 21.5456 179.369 21.9922C179.451 22.4388 179.569 22.8125 179.724 23.1133C179.97 23.5872 180.362 23.8242 180.9 23.8242ZM197.883 25.9434C197.71 25.9434 197.555 25.8613 197.418 25.6973C197.282 25.5423 197.163 25.3646 197.063 25.1641C196.963 24.9635 196.876 24.7995 196.803 24.6719C196.165 24.7995 195.518 24.9043 194.862 24.9863C194.205 25.0592 193.554 25.1367 192.907 25.2188C192.533 25.2643 192.159 25.3099 191.786 25.3555C191.412 25.401 191.038 25.4466 190.664 25.4922C190.464 25.5104 190.254 25.5332 190.036 25.5605C189.817 25.597 189.603 25.6152 189.393 25.6152C189.183 25.6152 189.028 25.5514 188.928 25.4238C188.837 25.3053 188.791 25.1458 188.791 24.9453C188.791 24.7721 188.851 24.64 188.969 24.5488C189.088 24.4577 189.233 24.3939 189.407 24.3574C189.58 24.321 189.753 24.2982 189.926 24.2891C190.099 24.2799 190.245 24.2708 190.364 24.2617C190.664 23.6146 190.947 22.9583 191.211 22.293C191.476 21.6276 191.717 20.9531 191.936 20.2695H189.475C189.274 20.2695 189.106 20.2285 188.969 20.1465C188.832 20.0645 188.764 19.9095 188.764 19.6816C188.764 19.4538 188.832 19.2988 188.969 19.2168C189.106 19.1348 189.274 19.0938 189.475 19.0938H192.811V16.7422H190.131C189.931 16.7422 189.762 16.7012 189.625 16.6191C189.489 16.5371 189.42 16.3822 189.42 16.1543C189.42 15.9264 189.489 15.7715 189.625 15.6895C189.762 15.6074 189.931 15.5664 190.131 15.5664H192.811V13.9258C192.811 13.7253 192.857 13.5612 192.948 13.4336C193.039 13.306 193.194 13.2422 193.413 13.2422C193.631 13.2422 193.786 13.306 193.877 13.4336C193.978 13.5521 194.028 13.7161 194.028 13.9258V15.5664H197.172C197.373 15.5664 197.541 15.6074 197.678 15.6895C197.824 15.7715 197.897 15.9264 197.897 16.1543C197.897 16.3822 197.824 16.5371 197.678 16.6191C197.541 16.7012 197.373 16.7422 197.172 16.7422H194.028V19.0938H197.815C198.024 19.0938 198.198 19.1348 198.334 19.2168C198.48 19.2988 198.553 19.4538 198.553 19.6816C198.553 19.9095 198.48 20.0645 198.334 20.1465C198.198 20.2285 198.024 20.2695 197.815 20.2695H193.276L193.262 20.3242C193.062 20.9531 192.815 21.5729 192.524 22.1836C192.232 22.7852 191.954 23.3913 191.69 24.002L191.621 24.166C192.378 24.0931 193.139 24.0247 193.905 23.9609C194.679 23.888 195.445 23.7969 196.202 23.6875C196.165 23.6328 196.083 23.5143 195.955 23.332C195.828 23.1497 195.691 22.9447 195.545 22.7168C195.399 22.4889 195.272 22.2793 195.163 22.0879C195.053 21.8965 194.998 21.7689 194.998 21.7051C194.998 21.5228 195.049 21.3906 195.149 21.3086C195.258 21.2266 195.399 21.1855 195.573 21.1855C195.755 21.1855 195.919 21.2585 196.065 21.4043C196.211 21.541 196.329 21.6777 196.42 21.8145C196.484 21.9056 196.593 22.0697 196.748 22.3066C196.913 22.5345 197.095 22.7988 197.295 23.0996C197.505 23.4004 197.705 23.7057 197.897 24.0156C198.088 24.3255 198.243 24.599 198.362 24.8359C198.489 25.0729 198.553 25.2415 198.553 25.3418C198.553 25.5514 198.494 25.7018 198.375 25.793C198.257 25.8932 198.093 25.9434 197.883 25.9434ZM188.668 15.6074C188.623 15.6074 188.523 15.571 188.368 15.498C188.222 15.4251 188.053 15.3431 187.862 15.252C187.67 15.1517 187.497 15.0605 187.342 14.9785C187.196 14.8965 187.101 14.8418 187.055 14.8145C186.937 14.7415 186.832 14.6595 186.741 14.5684C186.659 14.4772 186.618 14.3587 186.618 14.2129C186.618 13.7936 186.836 13.584 187.274 13.584C187.383 13.584 187.547 13.6296 187.766 13.7207C187.994 13.8118 188.226 13.9303 188.463 14.0762C188.7 14.2129 188.901 14.3633 189.065 14.5273C189.229 14.6823 189.311 14.8281 189.311 14.9648C189.311 15.3932 189.097 15.6074 188.668 15.6074ZM188.08 19.1074C188.017 19.1074 187.926 19.0846 187.807 19.0391C187.689 18.9844 187.57 18.9297 187.452 18.875C187.333 18.8112 187.242 18.7656 187.178 18.7383C187.051 18.6745 186.886 18.6061 186.686 18.5332C186.485 18.4512 186.308 18.3509 186.153 18.2324C186.007 18.1048 185.934 17.9499 185.934 17.7676C185.934 17.3301 186.148 17.1113 186.577 17.1113C186.677 17.1113 186.814 17.1478 186.987 17.2207C187.169 17.2845 187.306 17.3392 187.397 17.3848C187.534 17.4486 187.702 17.526 187.903 17.6172C188.112 17.6992 188.295 17.8086 188.45 17.9453C188.605 18.0729 188.682 18.2324 188.682 18.4238C188.682 18.6243 188.636 18.7884 188.545 18.916C188.454 19.0436 188.299 19.1074 188.08 19.1074ZM186.659 25.8477C186.212 25.8477 185.989 25.638 185.989 25.2188C185.989 25.1003 186.039 24.9408 186.139 24.7402C186.248 24.5306 186.326 24.3757 186.371 24.2754C186.608 23.7923 186.823 23.291 187.014 22.7715C187.205 22.252 187.401 21.7415 187.602 21.2402C187.666 21.0853 187.739 20.9531 187.821 20.8438C187.912 20.7344 188.049 20.6797 188.231 20.6797C188.413 20.6797 188.564 20.7207 188.682 20.8027C188.801 20.8757 188.86 21.0124 188.86 21.2129C188.86 21.2949 188.81 21.4818 188.709 21.7734C188.618 22.056 188.5 22.3932 188.354 22.7852C188.217 23.1771 188.071 23.569 187.916 23.9609C187.761 24.3438 187.62 24.681 187.493 24.9727C187.365 25.2643 187.274 25.4512 187.219 25.5332C187.082 25.7428 186.896 25.8477 186.659 25.8477ZM201.044 25.875C200.853 25.875 200.689 25.7975 200.552 25.6426C200.424 25.4876 200.361 25.319 200.361 25.1367C200.361 24.9544 200.447 24.7995 200.62 24.6719C200.793 24.5352 200.948 24.4258 201.085 24.3438C201.395 24.1615 201.696 23.9746 201.987 23.7832C202.279 23.5918 202.562 23.3776 202.835 23.1406C203.637 22.457 204.275 21.696 204.749 20.8574C205.232 20.0098 205.579 19.1074 205.788 18.1504C205.998 17.1842 206.103 16.1908 206.103 15.1699C206.103 15.0241 206.094 14.8509 206.075 14.6504C206.066 14.4499 206.071 14.2539 206.089 14.0625C206.116 13.862 206.18 13.6979 206.28 13.5703C206.381 13.4427 206.54 13.3789 206.759 13.3789C206.969 13.3789 207.133 13.429 207.251 13.5293C207.379 13.6296 207.443 13.7891 207.443 14.0078C207.443 14.4362 207.424 14.8737 207.388 15.3203C207.361 15.7578 207.324 16.1908 207.279 16.6191L207.292 16.6602C207.557 17.7721 207.907 18.7884 208.345 19.709C208.792 20.6204 209.357 21.4499 210.04 22.1973C210.724 22.9447 211.558 23.6191 212.542 24.2207C212.688 24.3118 212.838 24.4212 212.993 24.5488C213.157 24.6673 213.239 24.8268 213.239 25.0273C213.239 25.2005 213.167 25.3691 213.021 25.5332C212.884 25.6973 212.724 25.7793 212.542 25.7793C212.396 25.7793 212.219 25.7292 212.009 25.6289C211.808 25.5286 211.612 25.4147 211.421 25.2871C211.23 25.1595 211.075 25.0547 210.956 24.9727C209.945 24.2526 209.097 23.3958 208.413 22.4023C207.73 21.3997 207.206 20.3105 206.841 19.1348C206.613 20.0007 206.276 20.8301 205.829 21.623C205.383 22.416 204.845 23.1406 204.216 23.7969C203.596 24.444 202.894 24.9909 202.111 25.4375C201.992 25.5013 201.823 25.5879 201.605 25.6973C201.386 25.8158 201.199 25.875 201.044 25.875ZM166.771 36.4551C166.553 36.4551 166.402 36.4049 166.32 36.3047C166.247 36.1953 166.211 36.0632 166.211 35.9082C166.211 35.7441 166.211 35.5801 166.211 35.416H163.23C163.057 35.416 162.916 35.375 162.807 35.293C162.697 35.2109 162.643 35.0742 162.643 34.8828C162.643 34.7005 162.697 34.5684 162.807 34.4863C162.916 34.4043 163.057 34.3633 163.23 34.3633H166.211C166.211 34.1992 166.211 34.0306 166.211 33.8574C166.211 33.6842 166.247 33.5384 166.32 33.4199C166.393 33.3014 166.544 33.2422 166.771 33.2422C166.999 33.2422 167.15 33.3014 167.223 33.4199C167.296 33.5384 167.332 33.6842 167.332 33.8574C167.332 34.0306 167.332 34.1992 167.332 34.3633H170.559C170.559 34.1992 170.559 34.0306 170.559 33.8574C170.559 33.6842 170.595 33.5384 170.668 33.4199C170.741 33.3014 170.891 33.2422 171.119 33.2422C171.347 33.2422 171.497 33.3014 171.57 33.4199C171.643 33.5384 171.68 33.6842 171.68 33.8574C171.68 34.0306 171.68 34.1992 171.68 34.3633H174.729C174.911 34.3633 175.061 34.4043 175.18 34.4863C175.298 34.5592 175.357 34.696 175.357 34.8965C175.357 35.097 175.298 35.2337 175.18 35.3066C175.061 35.3796 174.911 35.416 174.729 35.416H171.68C171.68 35.5801 171.68 35.7441 171.68 35.9082C171.68 36.0632 171.643 36.1953 171.57 36.3047C171.497 36.4049 171.347 36.4551 171.119 36.4551C170.9 36.4551 170.75 36.4049 170.668 36.3047C170.595 36.1953 170.559 36.0632 170.559 35.9082C170.559 35.7441 170.559 35.5801 170.559 35.416H167.332C167.332 35.5801 167.332 35.7441 167.332 35.9082C167.332 36.0632 167.296 36.1953 167.223 36.3047C167.15 36.4049 166.999 36.4551 166.771 36.4551ZM168.973 46.1211C168.763 46.1211 168.608 46.0573 168.508 45.9297C168.417 45.8112 168.371 45.6517 168.371 45.4512V43.9609H163.148C162.966 43.9609 162.82 43.9199 162.711 43.8379C162.602 43.7467 162.547 43.6055 162.547 43.4141C162.547 43.2227 162.602 43.0859 162.711 43.0039C162.82 42.9128 162.966 42.8672 163.148 42.8672H168.371V41.8145H165.309C164.898 41.8145 164.575 41.7415 164.338 41.5957C164.101 41.4499 163.982 41.1445 163.982 40.6797V37.9043C163.982 37.1387 164.365 36.7559 165.131 36.7559H172.869C173.635 36.7559 174.018 37.1387 174.018 37.9043V40.6797C174.018 41.4453 173.635 41.8281 172.869 41.8281L169.574 41.8145V42.8672H174.852C175.034 42.8672 175.18 42.9128 175.289 43.0039C175.398 43.0859 175.453 43.2227 175.453 43.4141C175.453 43.6055 175.398 43.7467 175.289 43.8379C175.18 43.9199 175.034 43.9609 174.852 43.9609H169.574V45.4512C169.574 45.6517 169.524 45.8112 169.424 45.9297C169.333 46.0573 169.182 46.1211 168.973 46.1211ZM165.199 38.8203H172.801V38.1641C172.801 38.0182 172.755 37.9043 172.664 37.8223C172.582 37.7402 172.468 37.6992 172.322 37.6992H165.678C165.532 37.6992 165.413 37.7402 165.322 37.8223C165.24 37.9043 165.199 38.0182 165.199 38.1641V38.8203ZM165.678 40.8848H172.322C172.468 40.8848 172.582 40.8438 172.664 40.7617C172.755 40.6706 172.801 40.5521 172.801 40.4062V39.7227H165.199V40.4062C165.199 40.5521 165.24 40.6706 165.322 40.7617C165.413 40.8438 165.532 40.8848 165.678 40.8848ZM184.903 46.1211C184.703 46.1211 184.557 46.0618 184.466 45.9434C184.384 45.834 184.343 45.6882 184.343 45.5059V43.9609H180.856C180.683 43.9609 180.542 43.9245 180.432 43.8516C180.332 43.7695 180.282 43.6374 180.282 43.4551C180.282 43.2728 180.332 43.1452 180.432 43.0723C180.542 42.9902 180.683 42.9492 180.856 42.9492H184.343V41.8008H181.526C181.362 41.8008 181.23 41.7643 181.13 41.6914C181.029 41.6094 180.979 41.4818 180.979 41.3086C180.979 41.1354 181.029 41.0124 181.13 40.9395C181.23 40.8665 181.362 40.8301 181.526 40.8301H184.343V39.668H181.772C181.608 39.668 181.476 39.6315 181.376 39.5586C181.276 39.4766 181.225 39.349 181.225 39.1758C181.225 39.0026 181.276 38.8796 181.376 38.8066C181.476 38.7337 181.608 38.6973 181.772 38.6973H184.343V37.4668H180.897C180.742 37.4668 180.61 37.4303 180.501 37.3574C180.391 37.2845 180.337 37.1615 180.337 36.9883C180.337 36.806 180.387 36.6784 180.487 36.6055C180.596 36.5326 180.733 36.4961 180.897 36.4961H184.343V35.293H181.8C181.636 35.293 181.503 35.2565 181.403 35.1836C181.303 35.1016 181.253 34.974 181.253 34.8008C181.253 34.6185 181.303 34.4909 181.403 34.418C181.503 34.3451 181.636 34.3086 181.8 34.3086H184.343C184.343 34.1536 184.343 33.9941 184.343 33.8301C184.352 33.666 184.393 33.5293 184.466 33.4199C184.539 33.3014 184.684 33.2422 184.903 33.2422C185.122 33.2422 185.268 33.3014 185.341 33.4199C185.414 33.5293 185.45 33.666 185.45 33.8301C185.459 33.9941 185.464 34.1536 185.464 34.3086H187.815C188.207 34.3086 188.508 34.3861 188.718 34.541C188.927 34.6868 189.032 34.974 189.032 35.4023V36.4961C189.178 36.4961 189.337 36.4961 189.511 36.4961C189.684 36.487 189.834 36.5143 189.962 36.5781C190.089 36.6419 190.153 36.7786 190.153 36.9883C190.153 37.1888 190.089 37.321 189.962 37.3848C189.834 37.4486 189.679 37.4805 189.497 37.4805C189.324 37.4714 189.169 37.4668 189.032 37.4668C189.032 37.7129 189.037 37.9635 189.046 38.2188C189.055 38.474 189.037 38.7109 188.991 38.9297C188.945 39.1484 188.841 39.3262 188.677 39.4629C188.522 39.5996 188.276 39.668 187.938 39.668H185.464V40.8301H188.8C188.964 40.8301 189.096 40.8665 189.196 40.9395C189.296 41.0124 189.346 41.14 189.346 41.3223C189.346 41.4954 189.296 41.6185 189.196 41.6914C189.096 41.7643 188.964 41.8008 188.8 41.8008H185.464V42.9492H189.538C189.711 42.9492 189.848 42.9902 189.948 43.0723C190.057 43.1452 190.112 43.2728 190.112 43.4551C190.112 43.6374 190.057 43.7695 189.948 43.8516C189.848 43.9245 189.711 43.9609 189.538 43.9609H185.464V45.5059C185.464 45.6882 185.418 45.834 185.327 45.9434C185.245 46.0618 185.104 46.1211 184.903 46.1211ZM180.132 35.498C180.05 35.498 179.904 35.4525 179.694 35.3613C179.494 35.2611 179.279 35.1426 179.052 35.0059C178.824 34.86 178.628 34.7142 178.464 34.5684C178.3 34.4225 178.218 34.2949 178.218 34.1855C178.218 33.7663 178.432 33.5566 178.86 33.5566C178.979 33.5566 179.138 33.5977 179.339 33.6797C179.548 33.7617 179.762 33.8711 179.981 34.0078C180.2 34.1354 180.382 34.2767 180.528 34.4316C180.683 34.5775 180.761 34.7142 180.761 34.8418C180.761 35.2793 180.551 35.498 180.132 35.498ZM185.464 36.4961H187.87V35.7441C187.87 35.6074 187.829 35.498 187.747 35.416C187.665 35.334 187.555 35.293 187.419 35.293H185.464V36.4961ZM179.544 39.0254C179.471 39.0254 179.366 38.998 179.229 38.9434C179.093 38.8796 178.956 38.8158 178.819 38.752C178.692 38.679 178.591 38.6289 178.518 38.6016C178.418 38.5469 178.29 38.4831 178.136 38.4102C177.981 38.3372 177.839 38.2461 177.712 38.1367C177.593 38.0273 177.534 37.9043 177.534 37.7676C177.534 37.3483 177.748 37.1387 178.177 37.1387C178.277 37.1387 178.414 37.1706 178.587 37.2344C178.769 37.2982 178.947 37.3711 179.12 37.4531C179.302 37.5352 179.439 37.599 179.53 37.6445C179.676 37.7083 179.817 37.7995 179.954 37.918C180.091 38.0365 180.159 38.1868 180.159 38.3691C180.159 38.8066 179.954 39.0254 179.544 39.0254ZM185.464 38.6973H187.419C187.555 38.6973 187.665 38.6562 187.747 38.5742C187.829 38.4922 187.87 38.3828 187.87 38.2461V37.4668H185.464V38.6973ZM178.218 45.8477C178.017 45.8477 177.853 45.7975 177.725 45.6973C177.607 45.6061 177.548 45.4557 177.548 45.2461C177.548 45.1549 177.561 45.0729 177.589 45C177.616 44.918 177.648 44.8359 177.684 44.7539C177.93 44.1888 178.163 43.6237 178.382 43.0586C178.6 42.4844 178.81 41.9056 179.011 41.3223C179.065 41.1582 179.138 41.0124 179.229 40.8848C179.33 40.748 179.48 40.6797 179.68 40.6797C179.863 40.6797 180.009 40.7207 180.118 40.8027C180.236 40.8848 180.296 41.026 180.296 41.2266C180.296 41.3177 180.25 41.5091 180.159 41.8008C180.077 42.0833 179.972 42.416 179.845 42.7988C179.717 43.1725 179.58 43.5508 179.434 43.9336C179.298 44.3073 179.17 44.6354 179.052 44.918C178.933 45.2005 178.846 45.3874 178.792 45.4785C178.728 45.5788 178.646 45.6654 178.546 45.7383C178.455 45.8112 178.345 45.8477 178.218 45.8477ZM192.63 36.1406C192.43 36.1406 192.266 36.0996 192.138 36.0176C192.02 35.9264 191.961 35.7715 191.961 35.5527C191.961 35.334 192.02 35.1836 192.138 35.1016C192.266 35.0104 192.43 34.9648 192.63 34.9648H197.634V33.8848C197.634 33.4564 197.853 33.2422 198.291 33.2422C198.737 33.2422 198.961 33.4564 198.961 33.8848V34.9648H204.17C204.37 34.9648 204.53 35.0104 204.648 35.1016C204.776 35.1836 204.839 35.334 204.839 35.5527C204.839 35.7715 204.776 35.9264 204.648 36.0176C204.53 36.0996 204.37 36.1406 204.17 36.1406H192.63ZM198.291 46.1211C198.072 46.1211 197.912 46.0573 197.812 45.9297C197.721 45.8021 197.675 45.638 197.675 45.4375V39.2305H195.105C194.64 39.2305 194.408 39.4583 194.408 39.9141V44.1797C194.408 44.6263 194.198 44.8496 193.779 44.8496C193.56 44.8496 193.401 44.7904 193.3 44.6719C193.209 44.5443 193.164 44.3802 193.164 44.1797V39.3535C193.164 38.4967 193.592 38.0684 194.449 38.0684H197.675V36.9609C197.675 36.569 197.88 36.373 198.291 36.373C198.71 36.373 198.92 36.569 198.92 36.9609V38.0684H202.16C202.625 38.0684 202.985 38.1549 203.24 38.3281C203.495 38.5013 203.623 38.8431 203.623 39.3535V43.4688C203.623 44.3802 203.167 44.8359 202.255 44.8359H201.039C200.61 44.8359 200.396 44.6217 200.396 44.1934C200.396 43.9199 200.46 43.7422 200.587 43.6602C200.715 43.5781 200.875 43.5417 201.066 43.5508C201.257 43.5508 201.444 43.5508 201.627 43.5508C201.827 43.5508 202 43.5143 202.146 43.4414C202.301 43.3594 202.379 43.1725 202.379 42.8809V39.9141C202.379 39.4583 202.151 39.2305 201.695 39.2305H198.92V45.4375C198.92 45.6471 198.869 45.8112 198.769 45.9297C198.669 46.0573 198.509 46.1211 198.291 46.1211ZM214.454 36.2773C214.371 36.2773 214.221 36.209 214.002 36.0723C213.793 35.9355 213.556 35.776 213.291 35.5938C213.027 35.4023 212.781 35.2201 212.553 35.0469C212.325 34.8737 212.161 34.7552 212.061 34.6914C211.97 34.6276 211.879 34.5547 211.787 34.4727C211.705 34.3906 211.664 34.2904 211.664 34.1719C211.664 33.707 211.911 33.4746 212.403 33.4746C212.494 33.4746 212.644 33.5339 212.854 33.6523C213.073 33.7617 213.31 33.9076 213.565 34.0898C213.829 34.263 214.08 34.4499 214.317 34.6504C214.554 34.8418 214.75 35.0241 214.905 35.1973C215.06 35.3704 215.137 35.5072 215.137 35.6074C215.137 36.054 214.909 36.2773 214.454 36.2773ZM212.963 45.6699C212.817 45.6699 212.608 45.6654 212.334 45.6562C212.061 45.6562 211.792 45.6426 211.528 45.6152C211.263 45.5879 211.067 45.5469 210.94 45.4922C210.712 45.3919 210.557 45.2461 210.475 45.0547C210.393 44.8724 210.352 44.6673 210.352 44.4395V36.9473C210.352 36.7285 210.402 36.5462 210.502 36.4004C210.603 36.2546 210.771 36.1816 211.008 36.1816C211.245 36.1816 211.409 36.2546 211.5 36.4004C211.601 36.5462 211.651 36.7285 211.651 36.9473V43.7422C211.651 43.8242 211.655 43.9245 211.664 44.043C211.683 44.1615 211.733 44.2435 211.815 44.2891C211.897 44.3346 212.015 44.3665 212.17 44.3848C212.334 44.403 212.498 44.4167 212.662 44.4258C212.836 44.4258 212.963 44.4258 213.045 44.4258C213.136 44.4258 213.287 44.4258 213.496 44.4258C213.715 44.4258 213.948 44.4212 214.194 44.4121C214.44 44.403 214.668 44.3893 214.877 44.3711C215.087 44.3438 215.228 44.3073 215.301 44.2617C215.447 44.1797 215.547 44.0612 215.602 43.9062C215.657 43.7422 215.689 43.569 215.698 43.3867C215.707 43.1953 215.725 43.0176 215.752 42.8535C215.78 42.6895 215.834 42.5527 215.916 42.4434C216.008 42.334 216.158 42.2793 216.368 42.2793C216.823 42.2793 217.051 42.5117 217.051 42.9766C217.051 43.2591 217.028 43.5736 216.983 43.9199C216.946 44.2663 216.851 44.5807 216.696 44.8633C216.55 45.1458 216.313 45.3418 215.985 45.4512C215.757 45.5241 215.452 45.5742 215.069 45.6016C214.686 45.638 214.299 45.6562 213.907 45.6562C213.524 45.6654 213.209 45.6699 212.963 45.6699ZM218.733 42.9902C218.551 42.9902 218.396 42.9264 218.268 42.7988C218.222 42.7533 218.159 42.6393 218.077 42.457C217.995 42.2747 217.917 42.0879 217.844 41.8965C217.771 41.7051 217.721 41.5775 217.694 41.5137C217.411 40.7572 217.069 40.0326 216.668 39.3398C216.623 39.2578 216.554 39.1348 216.463 38.9707C216.372 38.8066 216.286 38.638 216.204 38.4648C216.131 38.2917 216.094 38.1641 216.094 38.082C216.094 37.8633 216.158 37.7083 216.286 37.6172C216.413 37.526 216.577 37.4805 216.778 37.4805C216.905 37.4805 217.06 37.5762 217.243 37.7676C217.425 37.959 217.616 38.2142 217.817 38.5332C218.017 38.8431 218.218 39.1849 218.418 39.5586C218.619 39.9323 218.797 40.3014 218.952 40.666C219.116 41.0306 219.243 41.3587 219.334 41.6504C219.435 41.9421 219.485 42.1654 219.485 42.3203C219.485 42.4935 219.403 42.6484 219.239 42.7852C219.075 42.9219 218.906 42.9902 218.733 42.9902ZM207.412 43.7832C206.957 43.7832 206.729 43.5599 206.729 43.1133C206.729 43.013 206.756 42.8763 206.811 42.7031C206.875 42.5208 206.925 42.3841 206.961 42.293C207.144 41.7552 207.28 41.222 207.371 40.6934C207.472 40.1556 207.563 39.6087 207.645 39.0527C207.663 38.916 207.695 38.7747 207.741 38.6289C207.786 38.474 207.859 38.3464 207.959 38.2461C208.06 38.1367 208.196 38.082 208.37 38.082C208.789 38.082 208.998 38.278 208.998 38.6699C208.998 38.8249 208.98 39.0573 208.944 39.3672C208.907 39.668 208.857 40.0143 208.793 40.4062C208.73 40.7891 208.652 41.1764 208.561 41.5684C208.47 41.9603 208.365 42.3249 208.246 42.6621C208.128 42.9993 207.996 43.2728 207.85 43.4824C207.713 43.6829 207.567 43.7832 207.412 43.7832ZM229.304 46.1211C229.103 46.1211 228.93 46.0801 228.784 45.998C228.639 45.916 228.566 45.7611 228.566 45.5332C228.566 45.2598 228.639 45.082 228.784 45C228.939 44.918 229.131 44.8815 229.359 44.8906C229.586 44.8997 229.81 44.9043 230.029 44.9043C230.265 44.9043 230.466 44.8633 230.63 44.7812C230.803 44.6992 230.89 44.5124 230.89 44.2207V41.9102C230.088 42.4753 229.254 42.9902 228.388 43.4551C227.531 43.9108 226.642 44.3118 225.722 44.6582C225.521 44.7402 225.262 44.8405 224.943 44.959C224.624 45.0684 224.282 45.1777 223.917 45.2871C223.562 45.4056 223.22 45.5013 222.892 45.5742C222.573 45.6562 222.304 45.6973 222.085 45.6973C221.866 45.6973 221.693 45.6426 221.566 45.5332C221.438 45.4329 221.374 45.2689 221.374 45.041C221.374 44.8223 221.456 44.6582 221.62 44.5488C221.648 44.5306 221.73 44.5033 221.866 44.4668C222.003 44.4303 222.158 44.3939 222.331 44.3574C222.514 44.3118 222.678 44.2754 222.823 44.248C222.969 44.2116 223.06 44.1888 223.097 44.1797C223.808 44.0156 224.532 43.8151 225.271 43.5781C226.018 43.332 226.752 43.054 227.472 42.7441C228.192 42.4251 228.862 42.0788 229.482 41.7051C228.297 41.9421 227.089 42.1198 225.859 42.2383C224.628 42.3568 223.411 42.4844 222.208 42.6211C222.172 42.6302 222.131 42.6348 222.085 42.6348C222.04 42.6348 221.994 42.6348 221.948 42.6348C221.557 42.6348 221.361 42.4342 221.361 42.0332C221.361 41.8418 221.438 41.7005 221.593 41.6094C221.757 41.5091 221.953 41.4453 222.181 41.418C222.409 41.3906 222.627 41.377 222.837 41.377C223.056 41.377 223.22 41.3724 223.329 41.3633V35.8945C223.329 35.4479 223.411 35.1016 223.575 34.8555C223.739 34.6094 224.068 34.4863 224.56 34.4863H226.241C226.296 34.3314 226.36 34.1582 226.433 33.9668C226.506 33.7754 226.601 33.6068 226.72 33.4609C226.848 33.3151 227.012 33.2422 227.212 33.2422C227.394 33.2422 227.554 33.2786 227.691 33.3516C227.827 33.4245 227.896 33.5658 227.896 33.7754C227.896 33.8574 227.85 33.9805 227.759 34.1445C227.677 34.2995 227.613 34.4134 227.568 34.4863H230.685C231.122 34.4863 231.464 34.5684 231.71 34.7324C231.965 34.8965 232.093 35.2246 232.093 35.7168V39.668C232.139 39.6133 232.225 39.513 232.353 39.3672C232.48 39.2214 232.622 39.0618 232.777 38.8887C232.941 38.7155 233.096 38.5697 233.241 38.4512C233.396 38.3236 233.519 38.2598 233.611 38.2598C233.993 38.2598 234.185 38.4512 234.185 38.834C234.185 38.9707 234.094 39.1439 233.911 39.3535C233.738 39.5632 233.529 39.7819 233.282 40.0098C233.036 40.2376 232.799 40.4427 232.571 40.625C232.353 40.8073 232.193 40.9349 232.093 41.0078V44.5898C232.093 45.0547 231.965 45.4238 231.71 45.6973C231.464 45.9798 231.099 46.1211 230.616 46.1211H229.304ZM224.532 36.6602H230.89V36.0176C230.89 35.8353 230.831 35.7031 230.712 35.6211C230.603 35.5391 230.466 35.498 230.302 35.498H225.12C224.728 35.498 224.532 35.694 224.532 36.0859V36.6602ZM224.532 38.834H230.89V37.6309H224.532V38.834ZM224.532 41.2812L227.581 41.0488C228.137 41.0033 228.689 40.9577 229.236 40.9121C229.792 40.8574 230.343 40.7891 230.89 40.707V39.8047H224.532V41.2812ZM240.791 37.6309C240.636 37.6309 240.504 37.599 240.395 37.5352C240.285 37.4622 240.23 37.3392 240.23 37.166C240.23 36.9837 240.285 36.8607 240.395 36.7969C240.504 36.7331 240.636 36.7012 240.791 36.7012H242.445L242.186 35.334C242.058 35.334 241.889 35.3431 241.68 35.3613C241.479 35.3704 241.297 35.3477 241.133 35.293C240.969 35.2292 240.887 35.0924 240.887 34.8828C240.887 34.7005 240.941 34.5775 241.051 34.5137C241.16 34.4499 241.292 34.418 241.447 34.418H243.963C243.963 34.2448 243.958 34.0671 243.949 33.8848C243.949 33.7025 243.99 33.5521 244.072 33.4336C244.154 33.306 244.314 33.2422 244.551 33.2422C244.788 33.2422 244.943 33.306 245.016 33.4336C245.098 33.5612 245.134 33.7161 245.125 33.8984C245.125 34.0716 245.125 34.2448 245.125 34.418H248.119C248.274 34.418 248.406 34.4499 248.516 34.5137C248.634 34.5775 248.693 34.7005 248.693 34.8828C248.693 35.056 248.634 35.1745 248.516 35.2383C248.406 35.3021 248.274 35.334 248.119 35.334H246.984C246.975 35.3522 246.952 35.4251 246.916 35.5527C246.889 35.6803 246.857 35.8262 246.82 35.9902C246.793 36.1452 246.761 36.291 246.725 36.4277C246.697 36.5645 246.679 36.6556 246.67 36.7012H248.365C248.52 36.7012 248.652 36.7331 248.762 36.7969C248.871 36.8607 248.926 36.9837 248.926 37.166C248.926 37.3392 248.871 37.4622 248.762 37.5352C248.652 37.599 248.52 37.6309 248.365 37.6309H240.791ZM237.25 46.1211C237.049 46.1211 236.913 46.0573 236.84 45.9297C236.767 45.8021 236.73 45.6517 236.73 45.4785V34.8828C236.73 34.1445 237.1 33.7754 237.838 33.7754H239.615C239.788 33.7754 239.962 33.7936 240.135 33.8301C240.308 33.8665 240.454 33.9395 240.572 34.0488C240.7 34.1491 240.764 34.304 240.764 34.5137C240.764 34.6777 240.714 34.8965 240.613 35.1699C240.522 35.4434 240.408 35.7396 240.271 36.0586C240.135 36.3685 239.993 36.6738 239.848 36.9746C239.711 37.2754 239.592 37.5443 239.492 37.7812C239.401 38.0091 239.355 38.1732 239.355 38.2734C239.355 38.3372 239.41 38.4557 239.52 38.6289C239.629 38.793 239.757 39.0026 239.902 39.2578C240.057 39.513 240.189 39.8047 240.299 40.1328C240.408 40.4609 240.463 40.8164 240.463 41.1992C240.463 41.8281 240.322 42.334 240.039 42.7168C239.766 43.0996 239.292 43.291 238.617 43.291C238.408 43.291 238.239 43.2409 238.111 43.1406C237.993 43.0404 237.934 42.8809 237.934 42.6621C237.934 42.4616 237.984 42.3294 238.084 42.2656C238.184 42.2018 238.307 42.1608 238.453 42.1426C238.608 42.1152 238.758 42.0788 238.904 42.0332C239.059 41.9785 239.187 41.8783 239.287 41.7324C239.387 41.5775 239.438 41.3314 239.438 40.9941C239.438 40.6751 239.383 40.3789 239.273 40.1055C239.164 39.832 239.036 39.5814 238.891 39.3535C238.745 39.1257 238.617 38.9206 238.508 38.7383C238.398 38.556 238.344 38.401 238.344 38.2734C238.344 38.1185 238.403 37.9089 238.521 37.6445C238.64 37.3802 238.777 37.0931 238.932 36.7832C239.096 36.4642 239.237 36.1543 239.355 35.8535C239.474 35.5436 239.533 35.2747 239.533 35.0469C239.533 34.9466 239.497 34.8828 239.424 34.8555C239.351 34.819 239.273 34.8008 239.191 34.8008H238.248C237.938 34.8008 237.783 34.9557 237.783 35.2656V45.4785C237.783 45.6517 237.742 45.8021 237.66 45.9297C237.587 46.0573 237.451 46.1211 237.25 46.1211ZM243.443 36.7012H245.658L245.918 35.334H243.197L243.443 36.7012ZM244.605 46.1211C244.241 46.1211 244.059 45.9251 244.059 45.5332V43.9473H240.627C240.463 43.9473 240.326 43.9108 240.217 43.8379C240.107 43.765 240.053 43.6374 240.053 43.4551C240.053 43.2728 240.107 43.1497 240.217 43.0859C240.326 43.013 240.463 42.9766 240.627 42.9766H244.059V42.2109H242.199C241.479 42.2109 241.119 41.8555 241.119 41.1445V39.3535C241.119 38.6335 241.479 38.2734 242.199 38.2734H247.066C247.796 38.2734 248.16 38.638 248.16 39.3672V41.1172C248.16 41.8464 247.796 42.2109 247.066 42.2109H245.139V42.9766H248.406C248.57 42.9766 248.712 43.013 248.83 43.0859C248.949 43.1497 249.008 43.2728 249.008 43.4551C249.008 43.6374 248.949 43.765 248.83 43.8379C248.712 43.9108 248.57 43.9473 248.406 43.9473H245.139V45.5332C245.139 45.7064 245.098 45.8477 245.016 45.957C244.934 46.0664 244.797 46.1211 244.605 46.1211ZM242.131 39.8594H247.107V39.4629C247.107 39.1895 246.975 39.0527 246.711 39.0527H242.527C242.263 39.0527 242.131 39.1849 242.131 39.4492V39.8594ZM242.527 41.4316H246.711C246.975 41.4316 247.107 41.2995 247.107 41.0352V40.6113H242.131V41.0488C242.131 41.1673 242.167 41.263 242.24 41.3359C242.313 41.3997 242.409 41.4316 242.527 41.4316ZM251.649 37.207C251.257 37.207 251.061 36.9974 251.061 36.5781L251.048 35.4434C251.048 35.0423 251.166 34.7552 251.403 34.582C251.64 34.4089 251.95 34.3223 252.333 34.3223H256.489C256.489 34.1309 256.489 33.9531 256.489 33.7891C256.498 33.625 256.544 33.4928 256.626 33.3926C256.717 33.2923 256.886 33.2422 257.132 33.2422C257.387 33.2422 257.555 33.2923 257.637 33.3926C257.729 33.4928 257.774 33.625 257.774 33.7891C257.783 33.9531 257.788 34.1309 257.788 34.3223H262.067C262.45 34.3223 262.76 34.4089 262.997 34.582C263.243 34.7461 263.366 35.0332 263.366 35.4434L263.352 36.5781C263.352 36.7695 263.307 36.9245 263.216 37.043C263.134 37.1523 262.988 37.207 262.778 37.207C262.532 37.207 262.368 37.1432 262.286 37.0156C262.213 36.888 262.177 36.7285 262.177 36.5371C262.186 36.3457 262.19 36.1543 262.19 35.9629C262.199 35.7715 262.167 35.612 262.095 35.4844C262.022 35.3568 261.867 35.293 261.63 35.293H252.798C252.561 35.293 252.401 35.3568 252.319 35.4844C252.246 35.612 252.21 35.7715 252.21 35.9629C252.219 36.1543 252.223 36.3457 252.223 36.5371C252.233 36.7285 252.196 36.888 252.114 37.0156C252.041 37.1432 251.886 37.207 251.649 37.207ZM251.458 41.0215C251.294 41.0215 251.162 40.985 251.061 40.9121C250.961 40.8392 250.911 40.7161 250.911 40.543C250.911 40.3698 250.961 40.2467 251.061 40.1738C251.162 40.1009 251.294 40.0645 251.458 40.0645H256.544V39.1348H253.057C252.902 39.1348 252.775 39.0983 252.675 39.0254C252.583 38.9525 252.538 38.834 252.538 38.6699C252.538 38.5059 252.588 38.3919 252.688 38.3281C252.789 38.2552 252.912 38.2188 253.057 38.2188H256.544V37.3574H252.866C252.556 37.3574 252.401 37.1979 252.401 36.8789C252.401 36.5599 252.556 36.4004 252.866 36.4004H256.544C256.544 36.2272 256.544 36.0677 256.544 35.9219C256.553 35.776 256.594 35.6576 256.667 35.5664C256.749 35.4661 256.899 35.416 257.118 35.416C257.346 35.416 257.496 35.4661 257.569 35.5664C257.642 35.6576 257.679 35.776 257.679 35.9219C257.688 36.0677 257.692 36.2272 257.692 36.4004H261.548C261.848 36.4004 261.999 36.5599 261.999 36.8789C261.999 37.1979 261.848 37.3574 261.548 37.3574H257.692V38.2188H261.343C261.498 38.2188 261.625 38.2552 261.725 38.3281C261.826 38.3919 261.876 38.5104 261.876 38.6836C261.876 38.8568 261.826 38.9753 261.725 39.0391C261.625 39.1029 261.498 39.1348 261.343 39.1348H257.692V40.0645H262.942C263.097 40.0645 263.229 40.1009 263.339 40.1738C263.448 40.2376 263.503 40.3607 263.503 40.543C263.503 40.7161 263.448 40.8392 263.339 40.9121C263.229 40.985 263.097 41.0215 262.942 41.0215H251.458ZM253.386 45.6699C253.039 45.6699 252.748 45.5879 252.511 45.4238C252.283 45.2689 252.169 45.0046 252.169 44.6309L252.182 43.0586C252.182 42.6758 252.264 42.3841 252.429 42.1836C252.593 41.974 252.88 41.8691 253.29 41.8691H261.014C261.361 41.8691 261.648 41.9466 261.876 42.1016C262.113 42.2565 262.231 42.5208 262.231 42.8945V44.6309C262.231 45.0228 262.113 45.2917 261.876 45.4375C261.639 45.5924 261.343 45.6699 260.987 45.6699H253.386ZM253.905 44.7129H260.495C260.841 44.7129 261.014 44.5397 261.014 44.1934V43.3184C261.014 42.972 260.841 42.7988 260.495 42.7988H253.905C253.559 42.7988 253.386 42.972 253.386 43.3184V44.1934C253.386 44.5397 253.559 44.7129 253.905 44.7129ZM267.115 41.0762C266.887 41.0762 266.727 41.0078 266.636 40.8711C266.554 40.7253 266.513 40.5521 266.513 40.3516V34.5C266.513 34.2904 266.554 34.1172 266.636 33.9805C266.727 33.8438 266.887 33.7754 267.115 33.7754C267.343 33.7754 267.498 33.8438 267.58 33.9805C267.671 34.1172 267.716 34.2904 267.716 34.5V40.3516C267.716 40.5521 267.671 40.7253 267.58 40.8711C267.498 41.0078 267.343 41.0762 267.115 41.0762ZM274.976 45.6973C274.757 45.6973 274.502 45.6973 274.211 45.6973C273.919 45.6973 273.636 45.6654 273.363 45.6016C273.089 45.5469 272.862 45.4375 272.679 45.2734C272.497 45.1094 272.406 44.8633 272.406 44.5352V40.748H271.162C270.67 40.748 270.291 40.6341 270.027 40.4062C269.763 40.1693 269.63 39.7956 269.63 39.2852V35.3066C269.63 34.3314 270.118 33.8438 271.093 33.8438H275.687C276.662 33.8438 277.15 34.3314 277.15 35.3066V39.2852C277.15 40.2604 276.662 40.748 275.687 40.748H273.623V43.8379C273.623 43.9564 273.65 44.084 273.705 44.2207C273.768 44.3483 273.869 44.4167 274.005 44.4258C274.16 44.4349 274.311 44.4486 274.457 44.4668C274.612 44.4759 274.762 44.4805 274.908 44.4805C274.981 44.4805 275.099 44.4805 275.263 44.4805C275.436 44.4714 275.623 44.4622 275.824 44.4531C276.024 44.444 276.207 44.4303 276.371 44.4121C276.535 44.3848 276.649 44.3529 276.713 44.3164C276.867 44.2253 276.959 44.0885 276.986 43.9062C277.022 43.724 277.045 43.5371 277.054 43.3457C277.073 43.1452 277.118 42.9766 277.191 42.8398C277.273 42.7031 277.437 42.6348 277.683 42.6348C278.121 42.6348 278.339 42.8626 278.339 43.3184C278.339 43.6465 278.303 43.9974 278.23 44.3711C278.157 44.7357 277.989 45.0365 277.724 45.2734C277.606 45.3828 277.428 45.4648 277.191 45.5195C276.954 45.5742 276.69 45.6152 276.398 45.6426C276.115 45.6699 275.847 45.6836 275.591 45.6836C275.336 45.6927 275.131 45.6973 274.976 45.6973ZM270.779 36.7559H276.002V35.4707C276.002 35.1061 275.819 34.9238 275.455 34.9238H271.326C270.961 34.9238 270.779 35.1061 270.779 35.4707V36.7559ZM271.326 39.668H275.455C275.819 39.668 276.002 39.4857 276.002 39.1211V37.8086H270.779V39.1211C270.779 39.4857 270.961 39.668 271.326 39.668ZM266.089 45.8477C265.67 45.8477 265.461 45.6289 265.461 45.1914C265.461 45 265.515 44.8633 265.625 44.7812C265.734 44.6992 265.866 44.64 266.021 44.6035C266.176 44.5579 266.322 44.5124 266.459 44.4668C267.024 44.2845 267.516 44.0156 267.935 43.6602C268.364 43.3047 268.673 42.8398 268.865 42.2656C268.91 42.1289 268.942 41.9967 268.961 41.8691C268.988 41.7324 269.015 41.5911 269.043 41.4453C269.115 41.0807 269.33 40.8984 269.685 40.8984C270.068 40.8984 270.259 41.0898 270.259 41.4727C270.259 42.0104 270.15 42.5208 269.931 43.0039C269.722 43.487 269.43 43.9199 269.056 44.3027C268.692 44.6855 268.277 45.0046 267.812 45.2598C267.575 45.3874 267.297 45.515 266.978 45.6426C266.668 45.7793 266.372 45.8477 266.089 45.8477ZM284.166 45.6699C283.738 45.6699 283.396 45.5879 283.141 45.4238C282.895 45.2598 282.772 44.9408 282.772 44.4668V41.459C282.69 41.4954 282.553 41.5684 282.362 41.6777C282.17 41.778 281.961 41.8828 281.733 41.9922C281.505 42.1016 281.295 42.1973 281.104 42.2793C280.912 42.3613 280.776 42.4023 280.694 42.4023C280.329 42.4023 280.147 42.2064 280.147 41.8145C280.147 41.6595 280.197 41.5365 280.297 41.4453C280.398 41.3542 280.511 41.2812 280.639 41.2266C281.551 40.862 282.426 40.4518 283.264 39.9961C284.103 39.5312 284.927 39.0299 285.739 38.4922H280.83C280.639 38.4922 280.475 38.4512 280.338 38.3691C280.211 38.2871 280.147 38.1413 280.147 37.9316C280.147 37.722 280.215 37.5807 280.352 37.5078C280.489 37.4258 280.648 37.3848 280.83 37.3848H285.028V35.7715H282.075C281.883 35.7715 281.724 35.735 281.596 35.6621C281.468 35.5801 281.405 35.4342 281.405 35.2246C281.405 35.015 281.468 34.8691 281.596 34.7871C281.724 34.7051 281.883 34.6641 282.075 34.6641H285.028C285.028 34.4818 285.019 34.2812 285 34.0625C284.991 33.8346 285.028 33.6387 285.11 33.4746C285.192 33.3105 285.365 33.2285 285.629 33.2285C285.903 33.2285 286.076 33.3105 286.149 33.4746C286.231 33.6387 286.263 33.8346 286.245 34.0625C286.235 34.2812 286.231 34.4818 286.231 34.6641H288.596C288.787 34.6641 288.947 34.7051 289.075 34.7871C289.202 34.86 289.266 35.0013 289.266 35.2109C289.266 35.4206 289.202 35.5664 289.075 35.6484C288.947 35.7305 288.787 35.7715 288.596 35.7715H286.231V37.3848H287.256C287.84 36.929 288.396 36.4551 288.924 35.9629C289.462 35.4616 289.982 34.9375 290.483 34.3906C290.565 34.2995 290.661 34.2129 290.77 34.1309C290.879 34.0397 290.998 33.9941 291.125 33.9941C291.308 33.9941 291.454 34.0397 291.563 34.1309C291.681 34.2129 291.741 34.3542 291.741 34.5547C291.741 34.6732 291.659 34.8372 291.495 35.0469C291.33 35.2474 291.121 35.4707 290.866 35.7168C290.62 35.9538 290.36 36.1862 290.086 36.4141C289.822 36.6419 289.58 36.8424 289.362 37.0156C289.143 37.1888 288.988 37.3118 288.897 37.3848H292.356C292.547 37.3848 292.707 37.4258 292.834 37.5078C292.971 37.5898 293.039 37.7357 293.039 37.9453C293.039 38.1549 292.971 38.3008 292.834 38.3828C292.698 38.4557 292.538 38.4922 292.356 38.4922H287.461L285.684 39.7227H290.114C290.551 39.7227 290.893 39.8047 291.139 39.9688C291.385 40.1237 291.508 40.4427 291.508 40.9258V44.2891C291.508 44.7266 291.426 45.0638 291.262 45.3008C291.098 45.5469 290.774 45.6699 290.291 45.6699H284.166ZM283.948 42.1562H290.291V41.2676C290.291 41.1035 290.241 40.9759 290.141 40.8848C290.041 40.7936 289.913 40.748 289.758 40.748H284.317C284.217 40.748 284.13 40.7799 284.057 40.8438C283.984 40.9076 283.948 40.9941 283.948 41.1035V42.1562ZM284.481 44.6309H289.758C289.922 44.6309 290.05 44.5853 290.141 44.4941C290.241 44.3939 290.291 44.2617 290.291 44.0977V43.1406H283.948V44.0977C283.948 44.2617 283.993 44.3939 284.084 44.4941C284.185 44.5853 284.317 44.6309 284.481 44.6309ZM302.941 44.4258C302.603 44.4258 302.435 44.248 302.435 43.8926V42.8125H298.894C298.538 42.8125 298.361 42.6484 298.361 42.3203C298.361 42.1471 298.411 42.0241 298.511 41.9512C298.611 41.8783 298.739 41.8418 298.894 41.8418H302.435V40.9668H300.206C299.842 40.9668 299.564 40.8984 299.372 40.7617C299.181 40.6159 299.085 40.347 299.085 39.9551V37.1523C299.085 36.487 299.409 36.1543 300.056 36.1543H302.435V35.2656H299.236C299.071 35.2656 298.939 35.2292 298.839 35.1562C298.739 35.0833 298.689 34.9603 298.689 34.7871C298.689 34.6048 298.739 34.4772 298.839 34.4043C298.939 34.3314 299.071 34.2949 299.236 34.2949H302.435C302.435 34.14 302.43 33.985 302.421 33.8301C302.421 33.666 302.453 33.5293 302.517 33.4199C302.59 33.3014 302.731 33.2422 302.941 33.2422C303.15 33.2422 303.287 33.3014 303.351 33.4199C303.424 33.5293 303.456 33.666 303.446 33.8301C303.446 33.985 303.446 34.14 303.446 34.2949H306.946C307.111 34.2949 307.243 34.3314 307.343 34.4043C307.443 34.4772 307.493 34.6048 307.493 34.7871C307.493 34.9603 307.443 35.0833 307.343 35.1562C307.243 35.2292 307.111 35.2656 306.946 35.2656H303.446V36.1543H305.825C306.19 36.1543 306.463 36.2272 306.646 36.373C306.837 36.5098 306.933 36.7741 306.933 37.166V39.9551C306.933 40.6296 306.6 40.9668 305.935 40.9668H303.446V41.8418H307.07C307.425 41.8418 307.603 42.0059 307.603 42.334C307.603 42.5072 307.553 42.6302 307.452 42.7031C307.352 42.776 307.224 42.8125 307.07 42.8125H303.446V43.8926C303.446 44.248 303.278 44.4258 302.941 44.4258ZM297.609 35.6621C297.49 35.6621 297.363 35.6211 297.226 35.5391C297.089 35.457 296.971 35.3841 296.87 35.3203C296.797 35.2747 296.683 35.2201 296.529 35.1562C296.383 35.0833 296.228 35.0013 296.064 34.9102C295.909 34.8099 295.772 34.7051 295.654 34.5957C295.544 34.4863 295.489 34.377 295.489 34.2676C295.489 33.8848 295.69 33.6934 296.091 33.6934C296.219 33.6934 296.396 33.7389 296.624 33.8301C296.852 33.9121 297.085 34.026 297.321 34.1719C297.568 34.3086 297.773 34.459 297.937 34.623C298.11 34.778 298.196 34.9238 298.196 35.0605C298.196 35.4616 298.001 35.6621 297.609 35.6621ZM300.097 38.123H302.435V37.043H300.534C300.243 37.043 300.097 37.1888 300.097 37.4805V38.123ZM303.446 38.123H305.894V37.4805C305.894 37.1888 305.748 37.043 305.456 37.043H303.446V38.123ZM305.347 45.7383C304.782 45.7383 304.212 45.7337 303.638 45.7246C303.064 45.7155 302.494 45.7018 301.929 45.6836C301.573 45.6745 301.213 45.6608 300.849 45.6426C300.484 45.6335 300.124 45.6061 299.769 45.5605C299.349 45.4967 298.935 45.3737 298.525 45.1914C298.124 45.0091 297.777 44.7585 297.486 44.4395C297.376 44.5215 297.235 44.6309 297.062 44.7676C296.889 44.8952 296.702 45.0273 296.501 45.1641C296.31 45.3008 296.118 45.4147 295.927 45.5059C295.745 45.6061 295.585 45.6562 295.448 45.6562C295.057 45.6562 294.861 45.4466 294.861 45.0273C294.861 44.7721 294.97 44.5898 295.189 44.4805L296.652 43.7559V40.0234C296.652 39.832 296.592 39.709 296.474 39.6543C296.364 39.5905 296.228 39.5632 296.064 39.5723C295.9 39.5814 295.731 39.5859 295.558 39.5859C295.376 39.5859 295.211 39.554 295.066 39.4902C294.929 39.4173 294.861 39.2533 294.861 38.998C294.861 38.6152 295.052 38.4238 295.435 38.4238H296.693C297.413 38.4238 297.773 38.7975 297.773 39.5449V43.3047C298.001 43.651 298.301 43.9154 298.675 44.0977C299.058 44.2799 299.473 44.4121 299.919 44.4941C300.366 44.5671 300.812 44.6081 301.259 44.6172C301.715 44.6263 302.125 44.6309 302.489 44.6309C303.246 44.6309 304.002 44.6217 304.759 44.6035C305.525 44.5762 306.281 44.5625 307.029 44.5625C307.238 44.5625 307.407 44.5944 307.534 44.6582C307.671 44.722 307.739 44.8815 307.739 45.1367C307.739 45.2643 307.712 45.3691 307.657 45.4512C307.612 45.5423 307.525 45.6107 307.398 45.6562C307.334 45.6745 307.206 45.6882 307.015 45.6973C306.833 45.7155 306.623 45.7246 306.386 45.7246C306.158 45.7337 305.948 45.7383 305.757 45.7383C305.566 45.7383 305.429 45.7383 305.347 45.7383ZM300.534 40.0781H302.435V38.9434H300.097V39.627C300.097 39.9277 300.243 40.0781 300.534 40.0781ZM303.446 40.0781H305.456C305.748 40.0781 305.894 39.9277 305.894 39.627V38.9434H303.446V40.0781ZM314.879 41.2949C314.706 41.2949 314.583 41.2402 314.51 41.1309C314.446 41.0215 314.414 40.8893 314.414 40.7344C314.414 40.5612 314.478 40.429 314.605 40.3379C314.733 40.2467 314.865 40.1738 315.002 40.1191C315.485 39.9277 315.932 39.709 316.342 39.4629C316.761 39.2077 317.167 38.9115 317.559 38.5742C317.276 38.2552 317.021 37.9089 316.793 37.5352C316.574 37.1523 316.383 36.765 316.219 36.373C316.164 36.4642 316.077 36.6009 315.959 36.7832C315.85 36.9564 315.722 37.1387 315.576 37.3301C315.439 37.5215 315.294 37.6855 315.139 37.8223C314.993 37.959 314.861 38.0273 314.742 38.0273C314.387 38.0273 314.209 37.8542 314.209 37.5078C314.209 37.4076 314.259 37.2891 314.359 37.1523C314.46 37.0156 314.537 36.9154 314.592 36.8516C314.965 36.3776 315.285 35.8854 315.549 35.375C315.813 34.8646 316.059 34.3359 316.287 33.7891C316.351 33.6432 316.424 33.5156 316.506 33.4062C316.597 33.2969 316.729 33.2422 316.902 33.2422C317.076 33.2422 317.212 33.2832 317.312 33.3652C317.413 33.4473 317.463 33.5794 317.463 33.7617C317.463 33.8529 317.422 33.9896 317.34 34.1719C317.267 34.3451 317.212 34.4681 317.176 34.541H320.211C320.393 34.541 320.576 34.5592 320.758 34.5957C320.949 34.6322 321.109 34.7051 321.236 34.8145C321.364 34.9238 321.428 35.0924 321.428 35.3203C321.428 35.4753 321.364 35.6712 321.236 35.9082C321.118 36.1361 320.963 36.3867 320.771 36.6602C320.58 36.9336 320.375 37.2025 320.156 37.4668C319.947 37.722 319.746 37.959 319.555 38.1777C319.363 38.3874 319.208 38.5469 319.09 38.6562C319.491 38.9479 319.901 39.194 320.32 39.3945C320.74 39.5859 321.186 39.75 321.66 39.8867C321.833 39.9323 322.007 40.0098 322.18 40.1191C322.353 40.2194 322.439 40.3743 322.439 40.584C322.439 40.7663 322.394 40.9121 322.303 41.0215C322.212 41.1309 322.07 41.1855 321.879 41.1855C321.669 41.1855 321.4 41.1172 321.072 40.9805C320.744 40.8438 320.398 40.6751 320.033 40.4746C319.678 40.265 319.345 40.0553 319.035 39.8457C318.734 39.6361 318.502 39.4583 318.338 39.3125C318.219 39.4128 318.046 39.5449 317.818 39.709C317.59 39.8639 317.335 40.0371 317.053 40.2285C316.779 40.4108 316.501 40.584 316.219 40.748C315.945 40.903 315.69 41.0352 315.453 41.1445C315.216 41.2448 315.025 41.2949 314.879 41.2949ZM312.117 46.1211C311.926 46.1211 311.794 46.0664 311.721 45.957C311.648 45.8477 311.611 45.7064 311.611 45.5332V40.1602L310.094 40.3105C309.93 40.3197 309.802 40.2741 309.711 40.1738C309.62 40.0736 309.574 39.946 309.574 39.791C309.574 39.5996 309.643 39.472 309.779 39.4082C309.925 39.3444 310.089 39.3125 310.271 39.3125C310.454 39.3125 310.604 39.3125 310.723 39.3125L311.707 37.8359C311.479 37.5898 311.219 37.362 310.928 37.1523C310.645 36.9336 310.367 36.724 310.094 36.5234C310.012 36.4596 309.93 36.3867 309.848 36.3047C309.766 36.2227 309.725 36.127 309.725 36.0176C309.725 35.6895 309.889 35.5254 310.217 35.5254C310.299 35.5254 310.385 35.5573 310.477 35.6211C310.577 35.6849 310.659 35.7396 310.723 35.7852C311.087 35.1471 311.402 34.5 311.666 33.8438C311.721 33.707 311.794 33.5794 311.885 33.4609C311.985 33.3333 312.117 33.2695 312.281 33.2695C312.637 33.2695 312.814 33.4382 312.814 33.7754C312.814 33.9121 312.755 34.099 312.637 34.3359C312.527 34.5638 312.391 34.8099 312.227 35.0742C312.062 35.3294 311.903 35.571 311.748 35.7988C311.602 36.0176 311.488 36.1816 311.406 36.291L312.227 37.002L313.184 35.3203C313.229 35.2474 313.293 35.1836 313.375 35.1289C313.466 35.0742 313.557 35.0469 313.648 35.0469C313.995 35.0469 314.168 35.2109 314.168 35.5391C314.168 35.6576 314.1 35.849 313.963 36.1133C313.826 36.3685 313.648 36.6556 313.43 36.9746C313.22 37.2845 313.001 37.599 312.773 37.918C312.546 38.2279 312.336 38.5059 312.145 38.752C311.962 38.998 311.83 39.1712 311.748 39.2715C311.757 39.2624 311.835 39.2533 311.98 39.2441C312.135 39.235 312.313 39.2259 312.514 39.2168C312.714 39.2077 312.896 39.1986 313.061 39.1895C313.225 39.1803 313.325 39.1758 313.361 39.1758C313.343 39.1211 313.311 39.0391 313.266 38.9297C313.229 38.8203 313.193 38.7109 313.156 38.6016C313.12 38.4831 313.102 38.401 313.102 38.3555C313.102 38.1003 313.243 37.9727 313.525 37.9727C313.617 37.9727 313.699 38.0046 313.771 38.0684C313.854 38.123 313.913 38.1914 313.949 38.2734C313.977 38.3555 314.022 38.4785 314.086 38.6426C314.159 38.8066 314.232 38.9844 314.305 39.1758C314.378 39.3581 314.441 39.5267 314.496 39.6816C314.551 39.8366 314.578 39.9505 314.578 40.0234C314.578 40.1693 314.533 40.2741 314.441 40.3379C314.359 40.4017 314.25 40.4336 314.113 40.4336C313.967 40.4336 313.858 40.3789 313.785 40.2695C313.712 40.151 313.653 40.0326 313.607 39.9141L312.623 40.0371V45.5332C312.623 45.7064 312.587 45.8477 312.514 45.957C312.441 46.0664 312.309 46.1211 312.117 46.1211ZM318.27 37.959C318.352 37.877 318.488 37.7357 318.68 37.5352C318.871 37.3346 319.072 37.1159 319.281 36.8789C319.491 36.6328 319.669 36.4049 319.814 36.1953C319.96 35.9857 320.033 35.8307 320.033 35.7305C320.033 35.6758 320.01 35.6393 319.965 35.6211C319.928 35.5938 319.887 35.5801 319.842 35.5801H316.902C317.03 36.0267 317.208 36.4505 317.436 36.8516C317.673 37.2526 317.951 37.6217 318.27 37.959ZM314.072 44.4121C313.881 44.4121 313.749 44.3301 313.676 44.166C313.603 44.002 313.557 43.8424 313.539 43.6875C313.493 43.3229 313.443 42.9629 313.389 42.6074C313.334 42.252 313.279 41.8965 313.225 41.541C313.215 41.4954 313.206 41.4453 313.197 41.3906C313.188 41.3359 313.184 41.2858 313.184 41.2402C313.184 41.1035 313.225 41.0078 313.307 40.9531C313.389 40.8984 313.489 40.8711 313.607 40.8711C313.735 40.8711 313.835 40.9395 313.908 41.0762C313.99 41.2129 314.049 41.3633 314.086 41.5273C314.132 41.6914 314.163 41.819 314.182 41.9102C314.218 42.1016 314.264 42.3203 314.318 42.5664C314.373 42.8125 314.423 43.0586 314.469 43.3047C314.514 43.5508 314.537 43.7695 314.537 43.9609C314.537 44.2617 314.382 44.4121 314.072 44.4121ZM310.039 44.6992C309.893 44.6992 309.775 44.6628 309.684 44.5898C309.602 44.5169 309.561 44.4076 309.561 44.2617C309.561 44.1797 309.574 44.0977 309.602 44.0156C309.629 43.9336 309.656 43.8561 309.684 43.7832C309.829 43.4095 309.93 43.0358 309.984 42.6621C310.039 42.2884 310.076 41.9056 310.094 41.5137C310.103 41.3587 310.135 41.222 310.189 41.1035C310.253 40.9759 310.376 40.9121 310.559 40.9121C310.714 40.9121 310.823 40.9577 310.887 41.0488C310.96 41.14 310.996 41.2585 310.996 41.4043C310.996 41.5137 310.987 41.696 310.969 41.9512C310.951 42.2064 310.919 42.4889 310.873 42.7988C310.827 43.1087 310.764 43.4095 310.682 43.7012C310.609 43.9928 310.518 44.2344 310.408 44.4258C310.308 44.6081 310.185 44.6992 310.039 44.6992ZM316.438 45.6836C315.681 45.6836 315.303 45.3053 315.303 44.5488V42.0469C315.303 41.2904 315.681 40.9121 316.438 40.9121H320.279C321.027 40.9121 321.4 41.2904 321.4 42.0469V44.5488C321.4 45.3053 321.027 45.6836 320.279 45.6836H316.438ZM316.793 44.6309H319.883C320.138 44.6309 320.266 44.5033 320.266 44.248V42.3477C320.266 42.0924 320.138 41.9648 319.883 41.9648H316.793C316.538 41.9648 316.41 42.0924 316.41 42.3477V44.248C316.41 44.5033 316.538 44.6309 316.793 44.6309ZM326.284 46.0391C326.083 46.0391 325.942 45.9798 325.86 45.8613C325.778 45.752 325.737 45.6061 325.737 45.4238V37.7539C325.619 37.7539 325.473 37.763 325.3 37.7812C325.136 37.7904 324.971 37.7858 324.807 37.7676C324.652 37.7493 324.52 37.6992 324.411 37.6172C324.311 37.5352 324.261 37.3984 324.261 37.207C324.261 37.0156 324.311 36.8789 324.411 36.7969C324.52 36.7148 324.652 36.6647 324.807 36.6465C324.971 36.6283 325.136 36.6283 325.3 36.6465C325.473 36.6556 325.619 36.6602 325.737 36.6602V33.8574C325.737 33.6751 325.778 33.5293 325.86 33.4199C325.942 33.3014 326.083 33.2422 326.284 33.2422C326.485 33.2422 326.626 33.3014 326.708 33.4199C326.79 33.5293 326.831 33.6751 326.831 33.8574V36.6602H327.843C328.025 36.6602 328.175 36.7012 328.294 36.7832C328.421 36.8561 328.485 36.9974 328.485 37.207C328.485 37.4076 328.421 37.5488 328.294 37.6309C328.175 37.7129 328.025 37.7539 327.843 37.7539H326.831V45.4238C326.831 45.6061 326.79 45.752 326.708 45.8613C326.626 45.9798 326.485 46.0391 326.284 46.0391ZM328.444 39.4766C328.08 39.4766 327.897 39.2852 327.897 38.9023C327.897 38.7383 327.979 38.6061 328.143 38.5059C328.317 38.4056 328.535 38.3053 328.8 38.2051C329.064 38.0957 329.342 37.9544 329.634 37.7812C329.934 37.6081 330.212 37.3711 330.468 37.0703C330.732 36.7604 330.942 36.3503 331.096 35.8398H328.936C328.763 35.8398 328.617 35.8034 328.499 35.7305C328.38 35.6484 328.321 35.5117 328.321 35.3203C328.321 35.1289 328.38 34.9967 328.499 34.9238C328.617 34.8509 328.763 34.8145 328.936 34.8145H331.274C331.283 34.7142 331.288 34.5775 331.288 34.4043C331.297 34.2311 331.315 34.0579 331.343 33.8848C331.37 33.7025 331.425 33.5521 331.507 33.4336C331.589 33.306 331.712 33.2422 331.876 33.2422C332.24 33.2422 332.423 33.4336 332.423 33.8164C332.423 33.9805 332.414 34.1491 332.395 34.3223C332.386 34.4863 332.373 34.6504 332.354 34.8145H335.075C335.449 34.8145 335.749 34.8965 335.977 35.0605C336.205 35.2155 336.319 35.4935 336.319 35.8945C336.319 36.1862 336.301 36.487 336.264 36.7969C336.228 37.0977 336.178 37.3939 336.114 37.6855C336.005 38.2415 335.813 38.6426 335.54 38.8887C335.276 39.1348 334.947 39.2852 334.555 39.3398C334.164 39.3945 333.717 39.4219 333.216 39.4219C333.024 39.4219 332.865 39.3809 332.737 39.2988C332.619 39.2077 332.559 39.0573 332.559 38.8477C332.559 38.638 332.623 38.4922 332.751 38.4102C332.878 38.3281 333.038 38.2871 333.229 38.2871C333.475 38.2871 333.717 38.2871 333.954 38.2871C334.191 38.278 334.401 38.2233 334.583 38.123C334.765 38.0137 334.893 37.8132 334.966 37.5215C335.02 37.3118 335.061 37.0977 335.089 36.8789C335.125 36.6602 335.143 36.446 335.143 36.2363C335.143 36.0814 335.093 35.9766 334.993 35.9219C334.893 35.8672 334.774 35.8398 334.637 35.8398H332.19C332.035 36.569 331.776 37.1706 331.411 37.6445C331.055 38.1185 330.554 38.5378 329.907 38.9023C329.789 38.9661 329.638 39.0436 329.456 39.1348C329.283 39.2259 329.105 39.3079 328.923 39.3809C328.74 39.4447 328.581 39.4766 328.444 39.4766ZM329.811 45.957C329.456 45.957 329.278 45.7793 329.278 45.4238C329.278 45.2051 329.324 45.0638 329.415 45C329.515 44.9362 329.638 44.9043 329.784 44.9043C329.93 44.8952 330.071 44.8724 330.208 44.8359C330.354 44.7995 330.468 44.6992 330.55 44.5352C330.641 44.3529 330.705 44.1159 330.741 43.8242C330.787 43.5234 330.814 43.2227 330.823 42.9219C330.841 42.612 330.85 42.3568 330.85 42.1562C330.85 41.901 330.723 41.7734 330.468 41.7734H329.757C329.72 42.2839 329.634 42.7943 329.497 43.3047C329.369 43.8151 329.169 44.2936 328.895 44.7402C328.822 44.8678 328.718 45.0228 328.581 45.2051C328.444 45.3965 328.294 45.5605 328.13 45.6973C327.966 45.8431 327.797 45.916 327.624 45.916C327.451 45.916 327.323 45.8659 327.241 45.7656C327.168 45.6654 327.132 45.5332 327.132 45.3691C327.132 45.278 327.182 45.1732 327.282 45.0547C327.391 44.9453 327.473 44.8587 327.528 44.7949C327.957 44.3665 328.262 43.9017 328.444 43.4004C328.626 42.8991 328.736 42.3568 328.772 41.7734H327.788C327.46 41.7734 327.296 41.6139 327.296 41.2949C327.296 40.9759 327.46 40.8164 327.788 40.8164H328.813L328.827 40.7891C328.836 40.6341 328.836 40.4701 328.827 40.2969C328.827 40.1237 328.859 39.9733 328.923 39.8457C328.996 39.7181 329.137 39.6543 329.346 39.6543C329.529 39.6543 329.656 39.709 329.729 39.8184C329.811 39.9186 329.852 40.0553 329.852 40.2285C329.852 40.3197 329.848 40.4154 329.839 40.5156C329.839 40.6159 329.834 40.7161 329.825 40.8164C330.007 40.8164 330.212 40.8118 330.44 40.8027C330.677 40.7936 330.901 40.8073 331.11 40.8438C331.329 40.8802 331.507 40.9622 331.643 41.0898C331.789 41.2174 331.862 41.418 331.862 41.6914C331.862 41.7826 331.858 41.8828 331.848 41.9922C331.839 42.0924 331.83 42.1927 331.821 42.293C331.812 42.5299 331.789 42.8398 331.753 43.2227C331.725 43.5964 331.68 43.9655 331.616 44.3301C331.561 44.6947 331.479 44.9863 331.37 45.2051C331.215 45.5059 330.996 45.7064 330.714 45.8066C330.431 45.9069 330.13 45.957 329.811 45.957ZM334.473 45.998C334.091 45.998 333.899 45.8203 333.899 45.4648C333.899 45.2734 333.945 45.1458 334.036 45.082C334.136 45.0182 334.259 44.9818 334.405 44.9727C334.56 44.9544 334.72 44.9271 334.884 44.8906C335.048 44.8542 335.193 44.7721 335.321 44.6445C335.458 44.5169 335.554 44.3073 335.608 44.0156C335.672 43.7057 335.718 43.3958 335.745 43.0859C335.772 42.7669 335.786 42.4525 335.786 42.1426C335.786 41.8965 335.649 41.7734 335.376 41.7734H334.501C334.464 42.2839 334.373 42.7943 334.227 43.3047C334.091 43.806 333.89 44.2799 333.626 44.7266C333.544 44.8633 333.434 45.0228 333.298 45.2051C333.17 45.3965 333.02 45.5651 332.846 45.7109C332.682 45.8568 332.509 45.9297 332.327 45.9297C331.981 45.9297 331.807 45.752 331.807 45.3965C331.807 45.2962 331.839 45.2005 331.903 45.1094C331.967 45.0273 332.031 44.9544 332.095 44.8906C332.568 44.444 332.91 43.9746 333.12 43.4824C333.339 42.9902 333.471 42.4206 333.516 41.7734C333.352 41.7734 333.161 41.7826 332.942 41.8008C332.733 41.8099 332.546 41.7871 332.382 41.7324C332.218 41.6686 332.136 41.5228 332.136 41.2949C332.136 40.9759 332.304 40.8164 332.641 40.8164H333.544C333.544 40.6888 333.548 40.5339 333.557 40.3516C333.567 40.1693 333.608 40.0098 333.68 39.873C333.753 39.7272 333.876 39.6543 334.05 39.6543C334.241 39.6543 334.378 39.709 334.46 39.8184C334.542 39.9186 334.583 40.0599 334.583 40.2422C334.583 40.3333 334.578 40.429 334.569 40.5293C334.569 40.6204 334.565 40.7161 334.555 40.8164C334.747 40.8164 334.97 40.8118 335.225 40.8027C335.481 40.7845 335.727 40.7936 335.964 40.8301C336.21 40.8574 336.41 40.9349 336.565 41.0625C336.729 41.1901 336.811 41.3997 336.811 41.6914C336.811 42.1654 336.789 42.6439 336.743 43.127C336.707 43.6009 336.638 44.0703 336.538 44.5352C336.456 44.9453 336.324 45.2552 336.141 45.4648C335.968 45.6745 335.745 45.8158 335.471 45.8887C335.198 45.9616 334.865 45.998 334.473 45.998ZM350.8 46.0938C350.527 46.0938 350.276 46.0117 350.048 45.8477C349.821 45.6927 349.615 45.5013 349.433 45.2734C349.251 45.0456 349.096 44.8268 348.968 44.6172C348.813 44.7266 348.613 44.8633 348.367 45.0273C348.121 45.1914 347.865 45.3327 347.601 45.4512C347.346 45.5788 347.118 45.6426 346.918 45.6426C346.617 45.6426 346.466 45.4785 346.466 45.1504C346.466 44.9954 346.553 44.8678 346.726 44.7676C346.908 44.6673 347.054 44.5944 347.164 44.5488C347.41 44.4486 347.647 44.3346 347.875 44.207C348.112 44.0794 348.344 43.9427 348.572 43.7969C348.435 43.4596 348.33 43.1178 348.257 42.7715C348.184 42.416 348.125 42.0605 348.08 41.7051H346.138V42.6211L347.259 42.416C347.387 42.3978 347.487 42.4342 347.56 42.5254C347.633 42.6074 347.67 42.7031 347.67 42.8125C347.67 42.9036 347.642 42.9948 347.587 43.0859C347.542 43.168 347.469 43.2181 347.369 43.2363L346.138 43.5098V44.7812C346.138 45.1732 346.07 45.4831 345.933 45.7109C345.796 45.9388 345.505 46.0527 345.058 46.0527C344.912 46.0527 344.748 46.0527 344.566 46.0527C344.384 46.0618 344.224 46.0299 344.087 45.957C343.951 45.8932 343.882 45.7565 343.882 45.5469C343.882 45.3555 343.923 45.2279 344.005 45.1641C344.097 45.1003 344.206 45.0638 344.334 45.0547C344.461 45.0547 344.584 45.0547 344.703 45.0547C344.83 45.0547 344.944 45.0365 345.045 45C345.145 44.9544 345.195 44.8451 345.195 44.6719V43.6738L343.746 43.8789C343.591 43.8971 343.472 43.8561 343.39 43.7559C343.308 43.6465 343.267 43.5234 343.267 43.3867C343.267 43.2227 343.331 43.0951 343.459 43.0039C343.486 42.9857 343.582 42.9629 343.746 42.9355C343.91 42.9082 344.097 42.8809 344.306 42.8535C344.516 42.8262 344.707 42.8034 344.88 42.7852C345.054 42.7578 345.158 42.7441 345.195 42.7441V41.7051H343.705C343.559 41.7051 343.436 41.6777 343.336 41.623C343.244 41.5592 343.199 41.4453 343.199 41.2812C343.199 41.1172 343.244 41.0078 343.336 40.9531C343.436 40.8893 343.559 40.8574 343.705 40.8574H345.195V40.1328C344.994 40.1602 344.78 40.1921 344.552 40.2285C344.324 40.2559 344.106 40.2695 343.896 40.2695C343.768 40.2695 343.664 40.2376 343.582 40.1738C343.5 40.11 343.459 40.0098 343.459 39.873C343.459 39.7546 343.509 39.668 343.609 39.6133C343.709 39.5586 343.823 39.5221 343.951 39.5039C344.087 39.4766 344.192 39.4629 344.265 39.4629C344.602 39.4355 344.944 39.4082 345.291 39.3809C345.646 39.3444 345.988 39.2806 346.316 39.1895C346.389 39.1712 346.471 39.1484 346.562 39.1211C346.662 39.0938 346.749 39.0801 346.822 39.0801C347.123 39.0801 347.273 39.2214 347.273 39.5039C347.273 39.6133 347.191 39.7044 347.027 39.7773C346.872 39.8411 346.703 39.8913 346.521 39.9277C346.339 39.9642 346.211 39.987 346.138 39.9961V40.8574H347.998C348.016 40.5293 348.011 40.1966 347.984 39.8594C347.966 39.513 347.948 39.1758 347.929 38.8477H343.759C343.623 38.8477 343.509 38.8158 343.418 38.752C343.326 38.6882 343.281 38.5833 343.281 38.4375C343.281 38.2826 343.326 38.1777 343.418 38.123C343.509 38.0592 343.623 38.0273 343.759 38.0273H346.822V37.207H344.552C344.425 37.207 344.315 37.1797 344.224 37.125C344.142 37.0612 344.101 36.9564 344.101 36.8105C344.101 36.6647 344.142 36.5645 344.224 36.5098C344.315 36.446 344.425 36.4141 344.552 36.4141H346.822V35.6211H344.101C343.964 35.6211 343.851 35.5892 343.759 35.5254C343.668 35.4616 343.623 35.3568 343.623 35.2109C343.623 35.056 343.668 34.9512 343.759 34.8965C343.851 34.8327 343.964 34.8008 344.101 34.8008H345.523C345.496 34.737 345.441 34.6322 345.359 34.4863C345.277 34.3405 345.199 34.1947 345.127 34.0488C345.054 33.8939 345.017 33.7799 345.017 33.707C345.017 33.5521 345.063 33.4518 345.154 33.4062C345.254 33.3516 345.368 33.3242 345.496 33.3242C345.605 33.3242 345.714 33.3835 345.824 33.502C345.942 33.6204 346.052 33.7663 346.152 33.9395C346.261 34.1126 346.352 34.2812 346.425 34.4453C346.498 34.6003 346.553 34.7188 346.589 34.8008H348.244C348.28 34.7096 348.321 34.582 348.367 34.418C348.421 34.2448 348.49 34.0716 348.572 33.8984C348.654 33.7161 348.745 33.5612 348.845 33.4336C348.955 33.306 349.082 33.2422 349.228 33.2422C349.383 33.2422 349.506 33.2786 349.597 33.3516C349.688 33.4154 349.734 33.5247 349.734 33.6797C349.734 33.7617 349.702 33.8802 349.638 34.0352C349.574 34.181 349.506 34.3268 349.433 34.4727C349.36 34.6185 349.301 34.7279 349.255 34.8008H350.978C351.115 34.8008 351.224 34.8327 351.306 34.8965C351.397 34.9512 351.443 35.056 351.443 35.2109C351.443 35.3568 351.397 35.4616 351.306 35.5254C351.224 35.5892 351.115 35.6211 350.978 35.6211H347.806V36.4141H350.322C350.449 36.4141 350.554 36.446 350.636 36.5098C350.727 36.5645 350.773 36.6647 350.773 36.8105C350.773 36.9564 350.727 37.0612 350.636 37.125C350.554 37.1797 350.449 37.207 350.322 37.207H347.806V38.0273H351.279C351.416 38.0273 351.53 38.0592 351.621 38.123C351.712 38.1777 351.757 38.2826 351.757 38.4375C351.757 38.5833 351.712 38.6882 351.621 38.752C351.53 38.8158 351.416 38.8477 351.279 38.8477H348.9L348.955 40.8574H351.279C351.425 40.8574 351.543 40.8893 351.634 40.9531C351.726 41.0169 351.771 41.1263 351.771 41.2812C351.771 41.4362 351.726 41.5456 351.634 41.6094C351.543 41.6732 351.425 41.7051 351.279 41.7051H349.037C349.064 41.9603 349.105 42.2155 349.16 42.4707C349.214 42.7168 349.287 42.9629 349.379 43.209C349.47 43.1361 349.597 43.0176 349.761 42.8535C349.925 42.6895 350.089 42.5391 350.254 42.4023C350.427 42.2565 350.554 42.1836 350.636 42.1836C350.928 42.1836 351.074 42.3249 351.074 42.6074C351.074 42.7077 351.019 42.8262 350.91 42.9629C350.809 43.0996 350.682 43.2363 350.527 43.373C350.381 43.5098 350.235 43.6374 350.089 43.7559C349.953 43.8652 349.848 43.9473 349.775 44.002C349.83 44.084 349.907 44.207 350.007 44.3711C350.117 44.5352 350.235 44.6855 350.363 44.8223C350.49 44.9499 350.609 45.0137 350.718 45.0137C350.828 45.0137 350.896 44.9499 350.923 44.8223C350.951 44.6855 350.969 44.5306 350.978 44.3574C350.996 44.1842 351.033 44.0339 351.087 43.9062C351.142 43.7695 351.252 43.7012 351.416 43.7012C351.589 43.7012 351.703 43.7604 351.757 43.8789C351.812 43.9883 351.839 44.1159 351.839 44.2617C351.839 44.4076 351.821 44.5853 351.785 44.7949C351.748 45.0046 351.689 45.2051 351.607 45.3965C351.534 45.597 351.429 45.7611 351.293 45.8887C351.156 46.0254 350.992 46.0938 350.8 46.0938ZM339.972 34.8691C339.799 34.8691 339.653 34.8327 339.535 34.7598C339.425 34.6868 339.371 34.5547 339.371 34.3633C339.371 34.1719 339.425 34.0397 339.535 33.9668C339.653 33.8939 339.799 33.8574 339.972 33.8574H342.515C342.688 33.8574 342.83 33.8939 342.939 33.9668C343.058 34.0397 343.117 34.1719 343.117 34.3633C343.117 34.5547 343.058 34.6868 342.939 34.7598C342.83 34.8327 342.688 34.8691 342.515 34.8691H339.972ZM339.562 36.7695C339.389 36.7695 339.243 36.7331 339.125 36.6602C339.015 36.5872 338.961 36.4551 338.961 36.2637C338.961 36.0723 339.015 35.9401 339.125 35.8672C339.243 35.7943 339.389 35.7578 339.562 35.7578H342.966C343.14 35.7578 343.281 35.7943 343.39 35.8672C343.509 35.9401 343.568 36.0723 343.568 36.2637C343.568 36.4551 343.509 36.5872 343.39 36.6602C343.281 36.7331 343.14 36.7695 342.966 36.7695H339.562ZM340.013 38.6152C339.849 38.6152 339.712 38.5788 339.603 38.5059C339.494 38.4329 339.439 38.3053 339.439 38.123C339.439 37.9408 339.494 37.8177 339.603 37.7539C339.712 37.681 339.849 37.6445 340.013 37.6445H342.474C342.647 37.6445 342.789 37.681 342.898 37.7539C343.007 37.8268 343.062 37.9544 343.062 38.1367C343.062 38.319 343.003 38.4466 342.884 38.5195C342.775 38.5833 342.638 38.6152 342.474 38.6152H340.013ZM350.623 40.6934C350.504 40.6934 350.404 40.6523 350.322 40.5703C350.24 40.4883 350.171 40.4017 350.117 40.3105C350.08 40.2467 350.021 40.1556 349.939 40.0371C349.857 39.9186 349.78 39.8001 349.707 39.6816C349.634 39.5632 349.597 39.4766 349.597 39.4219C349.597 39.2852 349.638 39.1895 349.72 39.1348C349.802 39.0801 349.903 39.0527 350.021 39.0527C350.103 39.0527 350.203 39.1029 350.322 39.2031C350.44 39.2943 350.559 39.4128 350.677 39.5586C350.796 39.6953 350.892 39.832 350.964 39.9688C351.046 40.1055 351.087 40.2103 351.087 40.2832C351.087 40.429 351.042 40.5339 350.951 40.5977C350.869 40.6615 350.759 40.6934 350.623 40.6934ZM340.013 40.4883C339.849 40.4883 339.712 40.4518 339.603 40.3789C339.494 40.306 339.439 40.1829 339.439 40.0098C339.439 39.8275 339.494 39.6999 339.603 39.627C339.712 39.554 339.849 39.5176 340.013 39.5176H342.474C342.647 39.5176 342.789 39.554 342.898 39.627C343.007 39.6999 343.062 39.8275 343.062 40.0098C343.062 40.1921 343.003 40.3197 342.884 40.3926C342.775 40.4564 342.638 40.4883 342.474 40.4883H340.013ZM340.587 45.5332C339.84 45.5332 339.466 45.1686 339.466 44.4395V42.498C339.466 41.7507 339.84 41.377 340.587 41.377H341.914C342.661 41.377 343.035 41.7507 343.035 42.498V44.4121C343.035 45.1595 342.661 45.5332 341.914 45.5332H340.587ZM340.752 44.6035H341.75C341.996 44.6035 342.119 44.4805 342.119 44.2344V42.6758C342.119 42.4297 341.996 42.3066 341.75 42.3066H340.752C340.505 42.3066 340.382 42.4297 340.382 42.6758V44.2344C340.382 44.4805 340.505 44.6035 340.752 44.6035ZM354.262 39.0117C354.052 39.0117 353.898 38.9525 353.797 38.834C353.706 38.7064 353.661 38.5423 353.661 38.3418C353.661 38.2142 353.72 38.1003 353.838 38C353.957 37.8906 354.089 37.7995 354.235 37.7266C354.39 37.6445 354.513 37.5807 354.604 37.5352C355.515 37.0885 356.331 36.5872 357.051 36.0312C357.771 35.4661 358.45 34.7917 359.088 34.0078C359.161 33.9167 359.252 33.8118 359.362 33.6934C359.48 33.5749 359.603 33.4701 359.731 33.3789C359.858 33.2878 359.986 33.2422 360.114 33.2422C360.287 33.2422 360.437 33.2786 360.565 33.3516C360.702 33.4154 360.77 33.5475 360.77 33.748C360.77 33.7936 360.761 33.8392 360.743 33.8848C360.724 33.9303 360.706 33.9759 360.688 34.0215V34.0352C361.426 34.7826 362.242 35.4434 363.135 36.0176C364.028 36.5918 364.954 37.0749 365.911 37.4668C366.066 37.5306 366.207 37.6126 366.334 37.7129C366.471 37.804 366.539 37.9453 366.539 38.1367C366.539 38.3008 366.471 38.4603 366.334 38.6152C366.207 38.7702 366.056 38.8477 365.883 38.8477C365.592 38.8477 365.236 38.7474 364.817 38.5469C364.398 38.3464 363.951 38.0866 363.477 37.7676C363.012 37.4486 362.552 37.1068 362.096 36.7422C361.649 36.3776 361.239 36.0312 360.866 35.7031C360.501 35.3659 360.214 35.0833 360.004 34.8555C359.576 35.3841 359.102 35.8717 358.582 36.3184C358.063 36.7559 357.525 37.1751 356.969 37.5762C356.832 37.6764 356.646 37.8086 356.409 37.9727C356.181 38.1276 355.935 38.2871 355.67 38.4512C355.406 38.6061 355.151 38.7383 354.905 38.8477C354.659 38.957 354.444 39.0117 354.262 39.0117ZM356.996 38.916C356.805 38.916 356.641 38.8796 356.504 38.8066C356.368 38.7246 356.299 38.5788 356.299 38.3691C356.299 38.1595 356.358 38.0137 356.477 37.9316C356.605 37.8496 356.764 37.8086 356.955 37.8086H363.135C363.327 37.8086 363.486 37.8496 363.614 37.9316C363.75 38.0137 363.819 38.1595 363.819 38.3691C363.819 38.5788 363.75 38.7246 363.614 38.8066C363.477 38.8796 363.317 38.916 363.135 38.916H356.996ZM365.35 46.0664C365.186 46.0664 365.022 45.9935 364.858 45.8477C364.703 45.7109 364.562 45.556 364.434 45.3828C364.306 45.2096 364.197 45.0684 364.106 44.959C362.602 45.1504 361.098 45.3053 359.594 45.4238C358.09 45.5423 356.582 45.6608 355.069 45.7793C354.85 45.7884 354.672 45.7337 354.536 45.6152C354.408 45.5059 354.344 45.3418 354.344 45.123C354.344 44.9043 354.426 44.7493 354.59 44.6582C354.754 44.5671 354.955 44.5124 355.192 44.4941C355.438 44.4759 355.679 44.4714 355.916 44.4805C356.153 44.4896 356.345 44.485 356.491 44.4668C356.755 44.0384 357.015 43.5736 357.27 43.0723C357.525 42.571 357.726 42.0833 357.871 41.6094H354.59C354.39 41.6094 354.221 41.5684 354.084 41.4863C353.957 41.4043 353.893 41.2539 353.893 41.0352C353.893 40.8164 353.957 40.666 354.084 40.584C354.221 40.502 354.39 40.4609 354.59 40.4609H365.61C365.81 40.4609 365.974 40.502 366.102 40.584C366.239 40.666 366.307 40.8164 366.307 41.0352C366.307 41.2539 366.239 41.4043 366.102 41.4863C365.974 41.5684 365.81 41.6094 365.61 41.6094H359.321C359.075 42.0742 358.829 42.5436 358.582 43.0176C358.345 43.4915 358.095 43.9564 357.83 44.4121C359.653 44.3301 361.463 44.1934 363.258 44.002C363.204 43.9473 363.112 43.8607 362.985 43.7422C362.857 43.6146 362.725 43.4824 362.588 43.3457C362.452 43.1999 362.333 43.0586 362.233 42.9219C362.133 42.7852 362.082 42.6758 362.082 42.5938C362.082 42.4115 362.137 42.2884 362.246 42.2246C362.356 42.1517 362.493 42.1152 362.657 42.1152C362.757 42.1152 362.907 42.1882 363.108 42.334C363.308 42.4707 363.536 42.653 363.791 42.8809C364.047 43.1087 364.306 43.3548 364.571 43.6191C364.835 43.8835 365.077 44.1432 365.295 44.3984C365.514 44.6536 365.692 44.877 365.829 45.0684C365.965 45.2598 366.034 45.3965 366.034 45.4785C366.034 45.6973 365.97 45.8477 365.842 45.9297C365.715 46.0208 365.551 46.0664 365.35 46.0664Z" fill="#6DB0E3"/>
<path d="M133 15V43" stroke="#6DB0E3" stroke-width="1.5" stroke-linecap="round"/>
</svg>
