<svg width="84" height="84" viewBox="0 0 84 84" fill="none" xmlns="http://www.w3.org/2000/svg">
<path d="M16 1H68C76.2843 1 83 7.71573 83 16V68C83 76.2843 76.2843 83 68 83H16C7.71573 83 1 76.2843 1 68V16C1 7.71573 7.71573 1 16 1Z" stroke="#6DB0E3" stroke-width="2"/>
<g clip-path="url(#clip0_681_1134)">
<path d="M54 28C54.5304 28 55.0391 28.2107 55.4142 28.5858C55.7893 28.9609 56 29.4696 56 30V46C56 46.5304 55.7893 47.0391 55.4142 47.4142C55.0391 47.7893 54.5304 48 54 48H34.828C33.7672 48.0002 32.75 48.4218 32 49.172L28 53.172V30C28 29.4696 28.2107 28.9609 28.5858 28.5858C28.9609 28.2107 29.4696 28 30 28H54ZM30 26C28.9391 26 27.9217 26.4214 27.1716 27.1716C26.4214 27.9217 26 28.9391 26 30V55.586C26 55.7839 26.0588 55.9773 26.1688 56.1418C26.2788 56.3062 26.4351 56.4344 26.618 56.5099C26.8009 56.5855 27.002 56.6052 27.1961 56.5664C27.3901 56.5276 27.5683 56.4321 27.708 56.292L33.414 50.586C33.789 50.2109 34.2976 50.0001 34.828 50H54C55.0609 50 56.0783 49.5786 56.8284 48.8284C57.5786 48.0783 58 47.0609 58 46V30C58 28.9391 57.5786 27.9217 56.8284 27.1716C56.0783 26.4214 55.0609 26 54 26H30Z" fill="#6DB0E3"/>
<path d="M32 33C32 32.7348 32.1054 32.4804 32.2929 32.2929C32.4804 32.1054 32.7348 32 33 32H51C51.2652 32 51.5196 32.1054 51.7071 32.2929C51.8946 32.4804 52 32.7348 52 33C52 33.2652 51.8946 33.5196 51.7071 33.7071C51.5196 33.8946 51.2652 34 51 34H33C32.7348 34 32.4804 33.8946 32.2929 33.7071C32.1054 33.5196 32 33.2652 32 33ZM32 38C32 37.7348 32.1054 37.4804 32.2929 37.2929C32.4804 37.1054 32.7348 37 33 37H51C51.2652 37 51.5196 37.1054 51.7071 37.2929C51.8946 37.4804 52 37.7348 52 38C52 38.2652 51.8946 38.5196 51.7071 38.7071C51.5196 38.8946 51.2652 39 51 39H33C32.7348 39 32.4804 38.8946 32.2929 38.7071C32.1054 38.5196 32 38.2652 32 38ZM32 43C32 42.7348 32.1054 42.4804 32.2929 42.2929C32.4804 42.1054 32.7348 42 33 42H43C43.2652 42 43.5196 42.1054 43.7071 42.2929C43.8946 42.4804 44 42.7348 44 43C44 43.2652 43.8946 43.5196 43.7071 43.7071C43.5196 43.8946 43.2652 44 43 44H33C32.7348 44 32.4804 43.8946 32.2929 43.7071C32.1054 43.5196 32 43.2652 32 43Z" fill="#6DB0E3"/>
</g>
<defs>
<clipPath id="clip0_681_1134">
<rect width="32" height="32" fill="white" transform="translate(26 26)"/>
</clipPath>
</defs>
</svg>
