<svg width="84" height="84" viewBox="0 0 84 84" fill="none" xmlns="http://www.w3.org/2000/svg">
<path d="M16 1H68C76.2843 1 83 7.71573 83 16V68C83 76.2843 76.2843 83 68 83H16C7.71573 83 1 76.2843 1 68V16L1.00488 15.6133C1.20675 7.63625 7.63625 1.20675 15.6133 1.00488L16 1Z" stroke="#6DB0E3" stroke-width="2"/>
<path d="M38.25 42C39.7418 42 41.1726 41.4074 42.2275 40.3525C43.2824 39.2976 43.875 37.8668 43.875 36.375C43.875 34.8832 43.2824 33.4524 42.2275 32.3975C41.1726 31.3426 39.7418 30.75 38.25 30.75C36.7582 30.75 35.3274 31.3426 34.2725 32.3975C33.2176 33.4524 32.625 34.8832 32.625 36.375C32.625 37.8668 33.2176 39.2976 34.2725 40.3525C35.3274 41.4074 36.7582 42 38.25 42ZM42 36.375C42 37.3696 41.6049 38.3234 40.9017 39.0267C40.1984 39.7299 39.2446 40.125 38.25 40.125C37.2554 40.125 36.3016 39.7299 35.5983 39.0267C34.8951 38.3234 34.5 37.3696 34.5 36.375C34.5 35.3804 34.8951 34.4266 35.5983 33.7233C36.3016 33.0201 37.2554 32.625 38.25 32.625C39.2446 32.625 40.1984 33.0201 40.9017 33.7233C41.6049 34.4266 42 35.3804 42 36.375ZM49.5 51.375C49.5 53.25 47.625 53.25 47.625 53.25H28.875C28.875 53.25 27 53.25 27 51.375C27 49.5 28.875 43.875 38.25 43.875C47.625 43.875 49.5 49.5 49.5 51.375ZM47.625 51.3675C47.6231 50.9063 47.3363 49.5187 46.065 48.2475C44.8425 47.025 42.5419 45.75 38.25 45.75C33.9581 45.75 31.6575 47.025 30.435 48.2475C29.1638 49.5187 28.8788 50.9063 28.875 51.3675H47.625Z" fill="#6DB0E3"/>
<path fill-rule="evenodd" clip-rule="evenodd" d="M52.3125 36.375C52.5611 36.375 52.7996 36.4738 52.9754 36.6496C53.1512 36.8254 53.25 37.0639 53.25 37.3125V40.125H56.0625C56.3111 40.125 56.5496 40.2238 56.7254 40.3996C56.9012 40.5754 57 40.8139 57 41.0625C57 41.3111 56.9012 41.5496 56.7254 41.7254C56.5496 41.9012 56.3111 42 56.0625 42H53.25V44.8125C53.25 45.0611 53.1512 45.2996 52.9754 45.4754C52.7996 45.6512 52.5611 45.75 52.3125 45.75C52.0639 45.75 51.8254 45.6512 51.6496 45.4754C51.4738 45.2996 51.375 45.0611 51.375 44.8125V42H48.5625C48.3139 42 48.0754 41.9012 47.8996 41.7254C47.7238 41.5496 47.625 41.3111 47.625 41.0625C47.625 40.8139 47.7238 40.5754 47.8996 40.3996C48.0754 40.2238 48.3139 40.125 48.5625 40.125H51.375V37.3125C51.375 37.0639 51.4738 36.8254 51.6496 36.6496C51.8254 36.4738 52.0639 36.375 52.3125 36.375Z" fill="#6DB0E3"/>
</svg>
