<svg width="84" height="84" viewBox="0 0 84 84" fill="none" xmlns="http://www.w3.org/2000/svg">
<path d="M16 1H68C76.2843 1 83 7.71573 83 16V68C83 76.2843 76.2843 83 68 83H16C7.71573 83 1 76.2843 1 68V16C1 7.71573 7.71573 1 16 1Z" stroke="#6DB0E3" stroke-width="2"/>
<path d="M47.3337 54V51.3333C47.3337 49.9188 46.7718 48.5623 45.7716 47.5621C44.7714 46.5619 43.4148 46 42.0003 46H34.0003C32.5858 46 31.2293 46.5619 30.2291 47.5621C29.2289 48.5623 28.667 49.9188 28.667 51.3333V54" stroke="#6DB0E3" stroke-width="2.66667" stroke-linecap="round" stroke-linejoin="round"/>
<path d="M47.333 30.1709C48.4767 30.4674 49.4895 31.1353 50.2126 32.0696C50.9356 33.004 51.3279 34.1521 51.3279 35.3336C51.3279 36.515 50.9356 37.6631 50.2126 38.5975C49.4895 39.5319 48.4767 40.1997 47.333 40.4962" stroke="#6DB0E3" stroke-width="2.66667" stroke-linecap="round" stroke-linejoin="round"/>
<path d="M55.333 54V51.3333C55.3321 50.1516 54.9388 49.0037 54.2148 48.0698C53.4908 47.1358 52.4772 46.4688 51.333 46.1733" stroke="#6DB0E3" stroke-width="2.66667" stroke-linecap="round" stroke-linejoin="round"/>
<path d="M38.0003 40.6667C40.9458 40.6667 43.3337 38.2789 43.3337 35.3333C43.3337 32.3878 40.9458 30 38.0003 30C35.0548 30 32.667 32.3878 32.667 35.3333C32.667 38.2789 35.0548 40.6667 38.0003 40.6667Z" stroke="#6DB0E3" stroke-width="2.66667" stroke-linecap="round" stroke-linejoin="round"/>
</svg>
