<svg width="84" height="84" viewBox="0 0 84 84" fill="none" xmlns="http://www.w3.org/2000/svg">
<path d="M16 1H68C76.2843 1 83 7.71573 83 16V68C83 76.2843 76.2843 83 68 83H16C7.71573 83 1 76.2843 1 68V16C1 7.71573 7.71573 1 16 1Z" stroke="#6DB0E3" stroke-width="2"/>
<path d="M28.667 38.6666C28.667 37.1829 29.1171 35.7341 29.9578 34.5115C30.7986 33.289 31.9903 32.3502 33.3758 31.8192C34.7613 31.2882 36.2752 31.1899 37.7177 31.5374C39.1601 31.8848 40.4633 32.6617 41.455 33.7653C41.5248 33.84 41.6093 33.8995 41.7031 33.9402C41.7969 33.9809 41.8981 34.002 42.0003 34.002C42.1026 34.002 42.2038 33.9809 42.2976 33.9402C42.3914 33.8995 42.4758 33.84 42.5457 33.7653C43.5342 32.6545 44.8377 31.8711 46.2825 31.5194C47.7273 31.1678 49.245 31.2644 50.6335 31.7966C52.022 32.3288 53.2155 33.2712 54.0551 34.4985C54.8948 35.7258 55.3407 37.1797 55.3337 38.6666C55.3337 41.72 53.3337 44 51.3337 46L44.011 53.084C43.7625 53.3693 43.4562 53.5985 43.1124 53.7564C42.7685 53.9142 42.395 53.9971 42.0167 53.9995C41.6384 54.0019 41.2639 53.9238 40.918 53.7703C40.5722 53.6168 40.263 53.3915 40.011 53.1093L32.667 46C30.667 44 28.667 41.7333 28.667 38.6666Z" stroke="#6DB0E3" stroke-width="2.66667" stroke-linecap="round" stroke-linejoin="round"/>
</svg>
